<svg width="26" height="26" viewBox="0 0 26 26" fill="none" xmlns="http://www.w3.org/2000/svg">
<g clip-path="url(#clip0_247_77)">
<path d="M13 25.9948C20.1797 25.9948 26 20.1757 26 12.9975C26 5.81932 20.1797 0.000244141 13 0.000244141C5.8203 0.000244141 0 5.81932 0 12.9975C0 20.1757 5.8203 25.9948 13 25.9948Z" fill="url(#paint0_radial_247_77)"/>
<path fill-rule="evenodd" clip-rule="evenodd" d="M23.6681 5.55908C25.135 7.66498 25.9949 10.2232 25.9949 12.9875C25.9949 20.1697 20.1728 25.9898 12.9949 25.9898C8.30582 25.9898 4.19843 23.507 1.91205 19.7827C4.26419 23.1451 8.15913 25.3465 12.5751 25.3465C19.7529 25.3465 25.5751 19.5264 25.5751 12.3442C25.5751 9.85632 24.877 7.5343 23.6681 5.56411V5.55908Z" fill="url(#paint1_linear_247_77)"/>
<path fill-rule="evenodd" clip-rule="evenodd" d="M11.4117 25.1403C11.4117 25.1403 14.4821 22.6826 17.5525 24.12C17.5525 24.12 15.6051 26.0048 11.4117 25.1403Z" fill="url(#paint2_linear_247_77)"/>
<path fill-rule="evenodd" clip-rule="evenodd" d="M23.6681 20.431C25.135 18.3251 25.9949 15.7668 25.9949 13.0025C25.9949 5.82036 20.1728 0.000244141 12.9949 0.000244141C8.30582 0.000244141 4.19843 2.48309 1.91205 6.20737C4.26419 2.84497 8.15913 0.643573 12.5751 0.643573C19.7529 0.643573 25.5751 6.46369 25.5751 13.6459C25.5751 16.1337 24.877 18.4558 23.6681 20.4259V20.431Z" fill="url(#paint3_linear_247_77)"/>
<path fill-rule="evenodd" clip-rule="evenodd" d="M2.32685 20.431C0.859922 18.3251 0 15.7668 0 13.0025C0 5.82036 5.82218 0.000244141 13 0.000244141C17.6891 0.000244141 21.7965 2.48309 24.0829 6.20737C21.7307 2.84497 17.8358 0.643573 13.4198 0.643573C6.24202 0.643573 0.419844 6.46369 0.419844 13.6459C0.419844 16.1337 1.1179 18.4558 2.32685 20.4259V20.431Z" fill="url(#paint4_linear_247_77)"/>
<path fill-rule="evenodd" clip-rule="evenodd" d="M23.1167 5.60433C19.6113 1.93534 15.6354 -0.195685 11.1588 0.754231C3.73814 2.32737 0.667711 6.88596 0.961096 13.1685C5.24047 19.1997 17.6942 3.0863 23.1167 5.60433Z" fill="url(#paint5_linear_247_77)"/>
<path fill-rule="evenodd" clip-rule="evenodd" d="M0.935791 10.4594C0.935791 10.4594 1.70972 4.44834 7.68365 2.36255C7.68365 2.36255 5.11906 10.5348 0.935791 10.4594Z" fill="url(#paint6_linear_247_77)"/>
<path fill-rule="evenodd" clip-rule="evenodd" d="M7.93151 2.07101C7.30427 1.74934 9.92451 0.824554 11.3965 0.894919C11.3965 0.894919 8.80661 2.51329 7.93151 2.07101Z" fill="url(#paint7_linear_247_77)"/>
</g>
<defs>
<radialGradient id="paint0_radial_247_77" cx="0" cy="0" r="1" gradientUnits="userSpaceOnUse" gradientTransform="translate(13.1365 12.9976) rotate(-1.68209) scale(12.6448 13.471)">
<stop stop-color="#5133AB" stop-opacity="0"/>
<stop offset="0.760784" stop-color="#5133AB" stop-opacity="0"/>
<stop offset="0.901961" stop-color="#5133AB" stop-opacity="0.3"/>
<stop offset="1" stop-color="#5133AB" stop-opacity="0.5"/>
</radialGradient>
<linearGradient id="paint1_linear_247_77" x1="13.9535" y1="5.55908" x2="13.9535" y2="25.9898" gradientUnits="userSpaceOnUse">
<stop stop-color="#5133AB"/>
<stop offset="1" stop-color="#5133AB" stop-opacity="0.2"/>
</linearGradient>
<linearGradient id="paint2_linear_247_77" x1="14.9425" y1="28.0919" x2="14.1954" y2="23.908" gradientUnits="userSpaceOnUse">
<stop stop-color="white"/>
<stop offset="1" stop-color="white" stop-opacity="0"/>
</linearGradient>
<linearGradient id="paint3_linear_247_77" x1="9.48849" y1="2.51941e-05" x2="14.7931" y2="10.8334" gradientUnits="userSpaceOnUse">
<stop stop-color="#5133AB"/>
<stop offset="1" stop-color="#5133AB" stop-opacity="0"/>
</linearGradient>
<linearGradient id="paint4_linear_247_77" x1="-0.448276" y1="12.3276" x2="20.7701" y2="2.31612" gradientUnits="userSpaceOnUse">
<stop stop-color="#5133AB"/>
<stop offset="1" stop-color="#5133AB" stop-opacity="0"/>
</linearGradient>
<linearGradient id="paint5_linear_247_77" x1="-6.05172" y1="18.1553" x2="19.9483" y2="3.13803" gradientUnits="userSpaceOnUse">
<stop stop-color="#5133AB"/>
<stop offset="1" stop-color="#5133AB" stop-opacity="0"/>
</linearGradient>
<linearGradient id="paint6_linear_247_77" x1="2.01724" y1="3.73572" x2="5.82758" y2="7.62078" gradientUnits="userSpaceOnUse">
<stop stop-color="white"/>
<stop offset="1" stop-color="white" stop-opacity="0"/>
</linearGradient>
<linearGradient id="paint7_linear_247_77" x1="8.74137" y1="0.747197" x2="9.61637" y2="2.14757" gradientUnits="userSpaceOnUse">
<stop stop-color="white"/>
<stop offset="1" stop-color="white" stop-opacity="0"/>
</linearGradient>
<clipPath id="clip0_247_77">
<rect width="26" height="26" fill="white"/>
</clipPath>
</defs>
</svg>
