<svg width="27" height="23" viewBox="0 0 27 23" fill="none" xmlns="http://www.w3.org/2000/svg">
<path fill-rule="evenodd" clip-rule="evenodd" d="M17.3 11.2562H18.8098V13.7976H17.3V11.2562ZM0.327339 18.3413V18.124C0.334784 18.0446 0.348185 17.9497 0.364563 17.8281L0.603541 15.6286C0.928134 13.1813 1.31601 10.915 2.09101 8.60499L2.75211 6.82592C3.09457 5.97161 3.475 5.14178 3.92094 4.36015C4.31031 3.67789 5.89009 2.5833 6.60405 2.15763C7.06414 1.88325 7.72672 1.49466 8.19574 1.30555C8.55607 1.1602 9.58345 0.65073 9.90656 0.624033L10.427 2.07606L9.36309 2.52027C8.64243 2.81913 7.20559 3.58741 6.55491 4.07983C6.44845 4.15992 6.52811 4.09985 6.4693 4.15028C6.70306 4.131 7.03882 3.99751 7.2979 3.93818C10.7635 3.14765 13.7324 2.81171 17.3662 3.40869C17.973 3.50806 18.5418 3.61559 19.0823 3.72164L20.735 4.09762C20.5541 3.85216 19.2743 3.16248 18.8954 2.97412L16.8823 2.07532L17.4027 0.623291C17.7065 0.648505 18.8358 1.16687 19.156 1.31445C20.3315 1.85729 22.8717 3.4124 23.4077 4.39203C23.7129 4.94971 23.9594 5.4347 24.2229 6.01759C25.5764 9.01434 26.3097 12.3908 26.7132 15.6723L26.9455 17.8785C27.0162 18.4095 26.9939 18.4599 26.7072 18.8107C26.396 19.1919 25.8719 19.7288 25.49 20.0358C23.6675 21.5004 21.6142 22.0937 19.0696 22.0937C18.9483 21.9128 18.8254 21.7563 18.7048 21.5753L17.9871 20.5267C17.8695 20.3517 17.6834 20.2004 17.664 19.9668C17.9343 19.9446 18.675 19.6858 18.9438 19.5819C19.899 19.2141 20.301 19.045 21.1884 18.5504C21.5525 18.3479 21.8666 18.1618 22.1935 17.9438C22.0058 17.59 21.4706 16.9145 21.4125 16.6994C21.2137 16.7157 21.1259 16.824 20.9606 16.9234C20.0136 17.4922 19.0324 17.9468 17.97 18.3005C14.0727 19.599 10.2096 19.0258 6.71274 17.1317C6.44175 16.9849 6.11269 16.7172 5.89754 16.6987C5.84989 16.8752 5.61687 17.1703 5.50222 17.3416C5.35704 17.5582 5.23346 17.7235 5.11732 17.943C6.04196 18.56 8.59032 19.8778 9.64674 19.9653C9.62738 20.1989 9.44051 20.3502 9.32363 20.5252L8.60595 21.5738C8.48535 21.7548 8.36251 21.9113 8.24116 22.0922C5.71439 22.0922 4.32222 21.625 2.47814 20.5201C1.8699 20.1559 0.988437 19.315 0.557383 18.7514C0.41221 18.5623 0.34744 18.4614 0.327339 18.3376L0.327339 18.3413ZM8.50173 11.2562H10.0115V13.7976H8.50173V11.2562V11.2562ZM20.7365 4.09911L20.8482 4.12729L20.7365 4.09911Z" fill="#27C7EC"/>
</svg>
