<svg width="149" height="87" viewBox="0 0 149 87" fill="none" xmlns="http://www.w3.org/2000/svg">
<g clip-path="url(#clip0_11_24)">
<path fill-rule="evenodd" clip-rule="evenodd" d="M104.996 8.55923C105.98 8.43714 106.961 8.58298 107.812 9.14024C108.62 9.66862 109.177 10.4517 109.351 11.4054C109.366 11.4879 109.378 11.5728 109.387 11.6584C109.747 11.5538 110.114 11.4687 110.485 11.4008C112.098 11.1056 113.783 11.0695 115.37 11.5294C116.784 11.9397 118.053 12.6493 119.111 13.6766L119.125 13.6901L119.139 13.7038C120.903 15.4834 121.865 17.7729 122.31 20.2125C122.323 20.286 122.336 20.3599 122.348 20.4341L122.556 19.9453L129.844 18.6106L128.471 22.7022C128.169 23.57 127.705 24.4207 127.229 25.2036C126.555 26.3116 125.672 27.3009 124.723 28.1788C123.755 29.0742 122.635 29.7959 121.455 30.383C121.019 31.6561 120.457 32.882 119.765 34.0392C118.925 35.4422 117.881 36.6882 116.608 37.7165C115.303 38.7705 113.806 39.4594 112.158 39.7613C110.49 40.0666 108.756 40.073 107.155 39.4565C106.132 39.0628 105.226 38.4915 104.46 37.7441C104.027 38.4723 103.546 39.1732 103.006 39.8211C102.252 40.7244 101.323 41.4774 100.188 41.7921C101.099 42.3969 101.705 43.3103 101.911 44.4433C102.089 45.4166 102.053 46.3961 101.753 47.3416C101.521 48.0723 101.205 48.7749 100.779 49.4135C100.545 49.7636 100.292 50.1085 100.014 50.4286C100.138 50.5329 100.258 50.6447 100.373 50.7646C100.89 51.2923 101.245 51.9305 101.379 52.6609C101.452 53.0641 101.452 53.4797 101.377 53.8828C101.163 55.0289 100.443 55.9134 99.4041 56.4213L99.3751 56.4361C99.6687 56.585 99.9483 56.7589 100.203 56.9637C100.479 56.6714 100.775 56.3957 101.09 56.1369C102.146 55.269 103.337 54.602 104.612 54.1145C105.444 53.7965 106.304 53.5607 107.18 53.4003C107.822 53.2827 108.494 53.2204 109.144 53.1632C110.279 53.0635 111.444 53.2284 112.544 53.5053C113.857 53.8353 115.054 54.4353 116.058 55.3473C116.796 56.0171 117.328 56.8238 117.681 57.7208C117.844 57.006 118.003 56.2904 118.158 55.5741C118.584 53.6171 118.931 51.6372 119.151 49.6461C119.322 48.1007 119.397 46.3863 119.117 44.8494C118.977 44.0813 118.697 43.2687 118.108 42.7273L116.274 41.042L118.896 39.1893C119.42 38.827 119.983 38.5062 120.542 38.203C121.263 37.8127 122.018 37.4957 122.797 37.2437C123.156 37.1173 123.524 37.0174 123.899 36.949C124.532 36.833 125.187 36.8183 125.829 36.8614C126.899 36.9331 127.838 37.4211 128.62 38.1371C129.601 39.0347 130.075 40.3288 130.308 41.6083C130.526 42.8021 130.437 44.0712 130.238 45.2616C130.007 46.6454 129.688 48.0176 129.317 49.3702C128.893 50.92 128.449 52.464 127.974 53.9992L127.974 53.9994C128.441 53.2747 128.931 52.5667 129.449 51.8826C130.522 50.4637 131.992 48.9223 133.817 48.588L133.896 48.5736L133.976 48.5654C135.398 48.421 136.905 48.401 138.308 48.708C139.324 48.9304 140.433 49.274 141.266 49.9177L141.284 49.9318L141.302 49.9462C141.868 50.4042 142.316 50.9662 142.45 51.7027C142.601 52.5276 142.292 53.3505 141.658 53.8942C140.864 54.5747 140.311 55.5426 139.92 56.5003C139.36 57.8711 138.981 59.3073 138.733 60.7659C138.483 62.2334 138.334 63.7236 138.33 65.2129C138.329 65.6662 138.338 66.1318 138.368 66.5956C138.586 66.2108 138.789 65.8172 138.978 65.4225C139.442 64.4598 139.868 63.4802 140.26 62.486C140.579 61.6748 140.896 60.8536 141.169 60.0253L141.178 59.9966L141.918 57.8595L149 56.5625L147.827 60.7202C147.56 61.6649 147.255 62.6029 146.94 63.5325C146.526 64.7575 146.074 65.9699 145.589 67.1688C145.069 68.4565 144.488 69.7198 143.839 70.9476C143.223 72.1112 142.499 73.2373 141.635 74.2323C140.768 75.2314 139.688 76.0361 138.363 76.2787C136.234 76.6685 134.119 76.4667 132.25 75.3211C130.45 74.2184 129.322 72.5664 128.943 70.4881C128.705 69.1881 128.545 67.8637 128.502 66.5386C128.326 66.9253 128.157 67.3149 127.994 67.7069C127.392 69.1564 126.944 70.6603 126.662 72.2044C126.408 73.5927 126.382 74.9937 126.636 76.3836L126.951 78.1087L124.791 78.8172C124.277 78.9857 123.735 79.1011 123.204 79.1984C121.654 79.4821 120.079 79.4469 118.59 78.8966C117.462 78.4797 116.589 77.7986 115.954 76.9262C115.888 77.1789 115.808 77.4297 115.715 77.6783C115.216 79.0129 114.446 80.1881 113.431 81.187C112.451 82.1513 111.326 82.9301 110.083 83.5155C108.998 84.0264 107.856 84.3924 106.676 84.6083C106.355 84.6671 106.03 84.717 105.706 84.7665L105.705 84.7666L105.534 84.7929C104.515 84.9497 103.418 84.818 102.414 84.6129C101.195 84.3638 100.078 83.8598 99.1214 83.0726C98.4931 83.4926 97.7958 83.7976 97.0255 83.9386C94.8788 84.3316 92.6739 84.2039 90.7918 83.0009C89.0075 81.8604 87.9737 80.1332 87.5952 78.06C87.3775 76.8672 87.2915 75.6327 87.2607 74.4218C87.2397 73.5943 87.2499 72.7659 87.2863 71.9385L85.0127 74.195L84.4034 70.8553C83.8863 70.7362 83.1814 70.7812 82.5974 70.8585C82.0486 73.505 81.6366 76.6195 82.0964 79.1389C82.2374 79.9119 82.4154 80.7102 82.6818 81.4505C82.8516 81.9225 83.0392 82.4352 83.2674 82.8824L84.5897 85.5612L81.8935 86.4454C81.3829 86.6129 80.8463 86.7279 80.3182 86.8245L80.1851 86.8489C79.5277 86.9692 78.8576 87.012 78.19 86.997C77.333 86.9954 76.4908 86.8426 75.6849 86.5509C74.7389 86.2083 73.9243 85.6223 73.2692 84.8603C72.5004 83.9661 72.0886 82.8404 71.8792 81.6926C71.6045 80.1873 71.8286 78.4265 72.1092 76.935C72.1522 76.7067 72.1962 76.4787 72.2411 76.2507C72.1153 76.23 71.9903 76.203 71.8664 76.1721C71.4568 76.0698 71.0783 75.8895 70.7272 75.6564C70.3178 75.3846 69.977 75.0285 69.6989 74.6246L69.6869 74.607L69.6752 74.5891C69.3587 74.1079 69.1699 73.5617 69.0669 72.9975C68.8404 71.756 69.2618 70.5543 69.925 69.5184C70.5845 68.4884 71.4402 67.5726 72.3493 66.7602C73.1607 66.0353 74.0223 65.3696 74.9195 64.7555C75.3706 62.798 75.7533 60.8247 76.0582 58.8389C76.178 58.0579 76.2744 57.2616 76.3329 56.4621C76.104 56.6001 75.8794 56.7435 75.6601 56.8923C75.4029 57.0671 74.6686 57.6079 74.5465 57.9097L74.0321 59.2742L72.7231 59.2135L73.0666 59.9297L70.3618 60.7832C69.8574 60.9425 69.3336 61.0592 68.8137 61.1544C67.2603 61.4388 65.6793 61.4061 64.1853 60.8568C62.0123 60.0579 60.8013 58.2623 60.3929 56.025C60.1903 54.9144 60.266 53.706 60.4182 52.5933C60.5566 51.5808 60.7401 50.5716 60.9491 49.5694C60.6732 49.817 60.3939 50.0608 60.1109 50.3007C59.8472 52.3257 59.525 54.3433 59.1348 56.3477C58.7046 58.5575 58.1343 60.7395 57.397 62.867C56.6986 64.8823 55.7934 66.8254 54.6386 68.6199C53.5152 70.3657 52.1249 71.8932 50.4502 73.1213C48.6771 74.4217 46.6516 75.213 44.4976 75.6074C42.3821 75.9948 40.1853 76.0903 38.0725 75.6341C36.1423 75.2175 34.3922 74.3573 32.991 72.9511C31.5434 71.4984 30.7278 69.6652 30.3622 67.662C30.0448 65.9227 30.2717 64.2325 31.0814 62.66C31.8579 61.1521 32.9804 59.8517 34.2453 58.734C35.6579 57.486 37.2025 56.3733 38.7891 55.359C40.5635 54.2248 42.3656 53.1334 44.1842 52.0719C44.8193 51.7012 45.4523 51.3266 46.0829 50.9483C45.0938 50.6571 44.1704 50.2031 43.318 49.6106C42.6313 49.1332 42.022 48.5737 41.4845 47.9469C41.427 48.0563 41.369 48.1656 41.3104 48.2744C40.6735 49.4586 39.9204 50.5917 39.0175 51.59C38.0993 52.6054 36.9693 53.3865 35.6042 53.6365C33.4748 54.0265 31.3561 53.8244 29.4838 52.6836C27.6802 51.5846 26.5463 49.929 26.1667 47.849C26.0268 47.0824 25.9152 46.3092 25.8376 45.5329C25.5117 46.351 25.1522 47.1563 24.769 47.9473C24.0871 49.3548 23.2686 50.6904 22.3473 51.953C21.3705 53.2913 20.2177 54.4787 18.8944 55.4749C17.477 56.5419 15.8754 57.2373 14.1302 57.5569C11.8573 57.9731 9.41201 58.0483 7.21194 57.243C5.30124 56.5437 3.70784 55.3682 2.55102 53.6894C1.43812 52.0743 0.756142 50.2452 0.405048 48.3209C0.341419 47.9724 0.282924 47.6215 0.224504 47.2711C0.197573 47.1096 0.170658 46.9482 0.143263 46.7871C-0.124585 45.2111 0.0392637 43.1955 0.1892 41.6078C0.410334 39.2664 0.860841 36.9532 1.49665 34.69C2.15034 32.3629 3.00028 30.0957 4.03476 27.9116C5.03464 25.8004 6.21571 23.7745 7.59614 21.8899C8.86994 20.1506 10.3447 18.5507 12.0512 17.2293C13.6483 15.9926 15.4419 15.0867 17.4378 14.7212C18.9906 14.4368 20.5927 14.4442 22.0925 14.9814C23.4569 15.4701 24.6175 16.2934 25.4999 17.4453C26.352 18.5575 26.8902 19.8368 27.1416 21.2144C27.3374 22.2874 27.4337 23.3781 27.4228 24.4682C28.105 24.9056 28.5846 25.5205 28.8999 26.2318C29.6101 26.2061 30.4132 26.064 31.0591 25.9457C32.2048 25.7359 33.3965 25.6449 34.556 25.7877C35.4628 25.8993 36.3915 26.0986 37.2287 26.4736C38.35 26.9759 39.4351 27.7504 39.6716 29.0458C39.8147 29.8299 39.562 30.6147 38.9903 31.1691L38.943 31.215L38.8928 31.2577C37.1537 32.7357 36.3224 36.1536 35.9372 38.2872C35.6658 39.7904 35.4617 41.3247 35.423 42.8531C35.4126 43.2672 35.4097 43.6955 35.423 44.1249C35.6503 43.7316 35.8617 43.3291 36.0607 42.9257C36.5462 41.9409 37.0006 40.94 37.4149 39.9231C37.7573 39.0829 38.0992 38.2358 38.4021 37.3805L38.6902 36.567C38.7232 35.7587 38.7869 34.9517 38.8769 34.1478C39.051 32.5899 39.3687 31.053 39.8572 29.563C40.328 28.1271 41.0074 26.7644 41.9684 25.5929C43.0084 24.3251 44.359 23.5103 45.9716 23.2149C46.9062 23.0437 47.882 23.0031 48.805 23.2621C49.5494 23.471 50.252 23.8041 50.8428 24.3092C51.3217 24.7187 51.7342 25.1951 52.041 25.7476C52.256 26.1347 52.4505 26.548 52.5724 26.9747L52.9803 28.4023C53.2112 27.6384 53.4718 26.8837 53.7704 26.1466C54.247 24.9704 54.8549 23.8007 55.6671 22.8203C56.5012 21.8136 57.5692 21.0911 58.8651 20.8537C60.0677 20.6335 61.317 20.6239 62.4991 20.9639C62.9906 21.1052 63.4878 21.2862 63.9476 21.5305L64.4904 21.1469L64.5088 21.1344C65.0316 20.782 65.5812 20.4619 66.1352 20.1617C66.8581 19.77 67.6126 19.4447 68.3919 19.1836C68.734 19.0689 69.0843 18.9822 69.4391 18.9173C70.0858 18.7989 70.7495 18.7797 71.4046 18.8219C71.4936 18.8277 71.5819 18.8362 71.6691 18.8476C71.1963 18.0473 70.8991 17.1564 70.7301 16.2333L70.7097 16.1215L70.7049 16.0906C70.3498 13.7417 71.0417 11.6161 72.7129 9.92939C74.44 8.18626 76.9941 7.3599 79.3501 6.92838L79.8616 6.83471L79.9167 6.82778C82.1858 6.54101 84.4918 6.69619 86.732 7.12904C89.0416 7.57527 91.3308 8.12522 93.5986 8.74914C93.7349 8.78666 93.8712 8.82373 94.0077 8.8604C93.9791 8.57978 93.9408 8.30127 93.8906 8.0268C93.8389 7.74376 93.775 7.45661 93.7116 7.1723L93.7115 7.17183L93.7111 7.17001C93.6888 7.07004 93.6666 6.97042 93.6451 6.87146C93.5752 6.55051 93.1389 6.11775 92.9072 5.91281L91.0051 4.23035L93.6502 2.36085C94.1733 1.99108 94.7482 1.66989 95.3108 1.36412C96.036 0.969981 96.8015 0.652143 97.5868 0.399867C97.9395 0.275597 98.3011 0.176321 98.6689 0.108892C99.3016 -0.00696843 99.9559 -0.0212174 100.596 0.0226196C101.664 0.0957331 102.603 0.580042 103.386 1.29241C104.371 2.18846 104.845 3.48691 105.079 4.76822C105.304 6.00298 105.205 7.32673 104.996 8.55899V8.55923ZM92.0713 41.3952C90.6947 40.4504 89.8834 38.9714 89.564 37.2214C89.5391 37.0851 89.5186 36.9472 89.5019 36.8081C89.4516 36.9285 89.4006 37.0486 89.3488 37.1684C88.5749 38.9593 87.6177 40.6652 86.4708 42.2434C86.176 42.6491 85.8673 43.0433 85.5445 43.4246C86.0564 43.2292 86.5709 43.0405 87.0878 42.8587C88.7084 42.2889 90.3834 41.7678 92.0712 41.3953L92.0713 41.3952ZM73.3294 48.6921C72.8237 48.6018 72.333 48.4569 71.8719 48.2418C71.4346 48.0379 71.037 47.791 70.6857 47.5028C70.5881 48.1757 70.5101 48.8514 70.4539 49.529C70.3852 50.3572 70.3685 51.1942 70.4253 52.0253C70.64 51.806 70.8616 51.5988 71.0813 51.4048C71.9542 50.6339 72.9101 49.9263 73.898 49.2715L73.2629 48.7384L73.3293 48.6922L73.3294 48.6921ZM94.1567 55.8571C93.9888 55.7263 93.829 55.5826 93.6782 55.4253C93.1698 54.8952 92.8107 54.2627 92.678 53.5353C92.6044 53.1319 92.6042 52.7164 92.6795 52.3133C92.7673 51.8439 92.9414 51.4188 93.1876 51.0454C92.6899 51.1129 92.1978 51.1941 91.7225 51.2796C90.2743 51.5402 88.8376 51.8607 87.4145 52.234C87.2812 53.4155 87.0295 54.6 86.7411 55.7283C86.304 57.438 85.8276 59.1382 85.3246 60.8299C85.3759 60.8299 85.4272 60.8303 85.4784 60.8307C86.5224 60.8416 87.5025 61.149 88.3723 61.7269C88.5779 61.8636 88.7662 62.0147 88.9378 62.1785C89.026 61.9165 89.1186 61.6559 89.2161 61.3973C89.6804 60.1664 90.2804 58.9629 91.0941 57.9246C91.8873 56.9127 92.9052 56.1514 94.1567 55.8571ZM98.461 65.094C98.3985 65.3106 98.3391 65.5272 98.282 65.7434C97.9194 67.1172 97.6392 68.5118 97.4306 69.9172C97.2355 71.231 97.1014 72.5596 97.0671 73.8878C97.0609 74.1307 97.0575 74.3812 97.0607 74.6338C97.3574 74.1447 97.621 73.6335 97.8575 73.1167C98.2975 72.1555 98.7003 71.1763 99.052 70.1792C99.3397 69.3635 99.619 68.5371 99.8542 67.7045L99.8623 67.676C99.6708 67.4282 99.4901 67.172 99.3201 66.9079C98.9551 66.3409 98.6734 65.7299 98.4612 65.094H98.461ZM106.95 61.3831L106.89 61.0499C106.894 61.0909 106.9 61.1326 106.908 61.1752C106.92 61.2445 106.934 61.3139 106.95 61.3831ZM106.886 60.927L108.707 60.5936C108.792 60.5072 108.892 60.3557 108.941 60.2779C109.054 60.0979 109.178 59.862 109.137 59.641L109.132 59.6155C108.938 59.5535 108.727 59.567 108.527 59.6037C108.203 59.663 107.884 59.8127 107.603 59.9802C107.336 60.1395 107.133 60.3623 106.973 60.6283C106.914 60.7258 106.89 60.8244 106.886 60.927H106.886ZM106.527 74.741C106.098 75.1544 105.704 75.5955 105.382 76.0587C104.995 76.617 104.306 77.7449 104.413 78.4872C104.513 78.4794 104.619 78.4627 104.68 78.4515C105.126 78.3698 105.669 78.2078 105.989 77.8631C106.299 77.5284 106.482 77.1521 106.569 76.7036C106.683 76.1164 106.674 75.5268 106.567 74.9388C106.555 74.8723 106.541 74.8064 106.527 74.7411V74.741ZM104.08 16.3082C103.708 16.3578 103.335 16.396 102.962 16.4235L102.758 17.1141L102.752 17.1334C101.857 19.9668 101.072 22.8354 100.396 25.7292C99.8938 27.8794 99.577 30.1073 99.5902 32.3238C99.8372 31.9025 100.061 31.4664 100.266 31.0284C100.708 30.0832 101.113 29.1208 101.475 28.1418C101.6 27.8023 101.724 27.4621 101.846 27.1211C101.989 26.4389 102.187 25.7692 102.436 25.1183C102.752 24.2944 103.162 23.5165 103.682 22.8154C103.627 22.5864 103.577 22.3557 103.535 22.1236C103.392 21.343 103.351 20.5287 103.344 19.7361C103.335 18.5667 103.617 17.4218 104.064 16.3469L104.08 16.3082ZM52.5639 29.584L51.2151 29.8308C51.1132 29.9253 50.9839 30.1183 50.926 30.2104C50.4801 30.9201 50.1542 31.7625 49.9029 32.5592C49.5504 33.677 49.2854 34.8251 49.0826 35.9791C48.8703 37.1866 48.7314 38.4064 48.6772 39.6315C48.6309 40.6791 48.647 41.7432 48.7763 42.7849L48.8547 43.3032C48.8604 43.3332 48.8672 43.3677 48.8749 43.4056C49.2026 42.7272 49.5107 41.9115 49.6359 41.5621C50.4238 39.3649 51.0213 37.0642 51.5257 34.7861C51.7713 33.4074 52.0494 32.0332 52.3754 30.6712L52.5639 29.584ZM64.6104 26.3421L64.5939 26.3522C63.8377 26.8149 63.3463 27.8984 63.0678 28.6981C62.4423 30.4945 62.0797 32.4575 61.8317 34.3397C61.6385 35.8057 61.4681 37.2752 61.3151 38.7463C61.5385 38.4481 61.7562 38.1452 61.9679 37.8377C63.2523 35.972 64.1584 33.9122 64.7244 31.7194L64.7662 31.5574C64.9419 29.983 64.9829 28.3074 64.6976 26.7445C64.6732 26.6106 64.6445 26.4759 64.6104 26.342V26.3421ZM21.0656 38.2863C21.0139 38.3269 20.9618 38.3672 20.9094 38.407C19.9632 39.125 18.8984 39.683 17.7223 39.8984C17.5576 39.9285 17.3845 39.9505 17.2137 39.9722C17.1327 39.9824 17.0522 39.9927 16.9733 40.0037C15.7733 40.1711 14.7226 39.5784 13.8586 38.807C12.7541 37.8211 12.2319 36.3477 11.9725 34.9267L11.6046 32.9108C11.3023 33.651 11.0203 34.3995 10.7583 35.1552C10.159 36.8835 9.6696 38.6517 9.33032 40.45C9.03705 42.0045 8.85999 43.5977 8.89318 45.1812C8.90624 45.8004 8.95474 46.4242 9.06604 47.034C9.1873 47.6985 9.4204 48.3659 9.68024 48.9876C9.8957 49.5033 10.3583 49.855 10.8372 50.1118C11.5854 50.5129 12.6885 50.4182 13.4882 50.2717C14.1363 50.153 14.7021 49.8649 15.2133 49.4506C15.9071 48.8885 16.5147 48.2284 17.0379 47.5051C17.6244 46.6943 18.1506 45.8404 18.6107 44.9514C19.0392 44.1235 19.4383 43.2759 19.7839 42.4097C20.042 41.7626 20.2908 41.1091 20.5163 40.4496L20.5312 40.4028L20.7861 39.4416C20.8874 39.0598 20.9799 38.6739 21.0657 38.2861L21.0656 38.2863ZM14.1232 32.563L11.8638 32.2897C12.2042 31.4918 12.5687 30.704 12.9576 29.9282C13.7451 28.3572 14.6451 26.8375 15.675 25.4133C16.5133 24.254 17.4744 23.1496 18.5783 22.2361C18.7984 22.0539 19.0322 21.877 19.2775 21.7147C19.2204 22.0106 19.1602 22.2786 19.1165 22.4653C18.8256 23.704 18.4288 24.9237 17.9796 26.1133C17.5102 27.3561 16.9598 28.5674 16.3196 29.7315C15.8875 30.5172 15.3416 31.4199 14.7146 32.067C14.5966 32.1888 14.3094 32.4666 14.1232 32.563ZM47.2182 59.4856C46.5203 59.9569 45.8268 60.4346 45.1382 60.9192C43.9527 61.753 42.7904 62.6551 41.7385 63.6545C41.0148 64.3421 40.3423 65.1442 39.91 66.051C39.6016 66.6979 39.5288 67.3447 39.6575 68.0497C39.7061 68.3164 39.7969 68.4791 40.0259 68.6243C40.3583 68.8349 40.9886 68.7635 41.3472 68.6979C43.2639 68.3469 44.5461 66.3118 45.3261 64.6977C46.1 63.0965 46.7147 61.305 47.2181 59.4857L47.2182 59.4856ZM86.0467 16.652C86.3796 16.7395 86.7073 16.854 87.0277 16.9988C88.3586 17.6006 89.3947 18.5789 90.1353 19.8369C90.7818 20.9352 91.1952 22.1434 91.4237 23.395C91.479 23.6985 91.5257 24.0071 91.5723 24.3144L91.5724 24.3152L91.5972 24.4787C92.0137 22.7818 92.4121 21.0806 92.7941 19.3756C93.0351 18.2998 93.2532 17.2188 93.4453 16.1331C92.7941 16.1162 92.1425 16.1093 91.4911 16.1114C89.7889 16.1168 88.0942 16.2747 86.4197 16.5813C86.3001 16.6032 86.1755 16.6268 86.0467 16.652ZM75.3948 33.3896C75.3009 33.4678 75.2073 33.5467 75.114 33.6262C75.1853 33.3754 75.2614 33.1261 75.3415 32.8783C75.7165 31.7198 76.2069 30.6028 76.8134 29.5472C77.3427 28.6264 77.9891 27.784 78.7757 27.0687C79.34 26.5557 79.9849 26.1792 80.7395 26.041C80.8392 26.0227 81.0846 25.9875 81.1983 26.0129C81.2224 26.0289 81.2509 26.049 81.2727 26.0682C81.3424 26.2835 81.4189 26.5237 81.4585 26.7411C81.6078 27.559 81.5246 28.565 81.3798 29.475C79.2674 30.5799 77.2239 31.8651 75.3948 33.3896ZM113.157 21.4252C113.126 21.1698 113.088 20.9157 113.042 20.6639C112.958 20.2062 112.835 19.7374 112.716 19.2867L112.706 19.248C112.602 18.852 112.337 18.5088 112.049 18.2278C111.883 18.066 111.646 18.0996 111.434 18.1385C111.078 18.2037 110.717 18.3298 110.479 18.6164C110.191 18.9631 110.041 19.3646 109.975 19.8089C109.962 19.901 109.952 19.9935 109.946 20.0862C110.119 20.1044 110.292 20.1298 110.463 20.1633C111.152 20.2987 111.83 20.5287 112.43 20.8994C112.684 21.0567 112.929 21.2311 113.157 21.4253V21.4252ZM110.897 32.6139C110.953 32.5384 111.001 32.4697 111.034 32.4188C111.22 32.1343 111.389 31.8343 111.542 31.5246C111.342 31.4633 111.144 31.3963 110.948 31.3235C110.897 31.7451 110.872 32.1846 110.897 32.614V32.6139ZM13.7692 55.5806C11.4323 56.0086 9.47513 55.9299 7.89983 55.3561C6.32352 54.7764 5.08875 53.8408 4.20126 52.5483C3.30809 51.2567 2.70011 49.7272 2.37762 47.9599C2.36814 47.9076 2.28194 47.4026 2.12011 46.4501C1.95813 45.4977 1.97935 43.9429 2.18556 41.7972C2.38493 39.6469 2.8052 37.462 3.42686 35.2344C4.05536 33.0114 4.86381 30.8574 5.84636 28.7731C6.83582 26.6936 7.95945 24.7932 9.2128 23.0787C10.4718 21.363 11.8265 19.9413 13.2775 18.8193C14.7334 17.6904 16.2364 16.984 17.7982 16.698C19.1865 16.4437 20.393 16.5042 21.4169 16.8736C22.4397 17.2372 23.2728 17.8392 23.9084 18.6688C24.544 19.4986 24.9663 20.4692 25.1682 21.5759C25.4259 22.9882 25.4835 24.3764 25.3457 25.7438C25.6096 25.7943 25.909 25.9134 26.2456 26.1033C26.7977 26.4094 27.149 26.9918 27.3066 27.8552L27.3098 27.8726C27.3278 27.9711 27.451 28.0564 27.6714 28.1178C27.8928 28.185 28.1217 28.227 28.3568 28.2377C29.0805 28.2729 30.095 28.1649 31.4196 27.9224C32.5013 27.7243 33.4674 27.6792 34.3112 27.7822C35.1492 27.8862 35.8509 28.0631 36.4097 28.3081C37.1984 28.6667 37.6296 29.0308 37.6984 29.4075C37.7205 29.5291 37.6864 29.6372 37.595 29.7258C35.8976 31.1684 34.6874 33.9051 33.9633 37.93C33.6499 39.6522 33.4615 41.2735 33.4178 42.8026C33.3881 44.1793 33.4533 45.323 33.6204 46.2386C33.6373 46.3313 33.705 46.6363 33.8243 47.1594C33.9436 47.6824 34.2168 47.9018 34.6507 47.8223C35.1539 47.7302 35.6859 47.3035 36.2463 46.5421C36.7999 45.776 37.3397 44.8688 37.8589 43.8156C38.378 42.7625 38.8509 41.7177 39.2717 40.6825C39.6973 39.6405 40.0347 38.7703 40.2922 38.0525L40.6709 36.9831L40.682 36.9811C40.7071 36.1255 40.7704 35.2552 40.8697 34.3719C41.035 32.8865 41.3313 31.4969 41.7624 30.1903C42.1877 28.8848 42.7747 27.7773 43.5176 26.8688C44.2661 25.9592 45.1981 25.3993 46.3319 25.1917C47.1012 25.0508 47.7413 25.0533 48.2638 25.1972C48.7873 25.3468 49.214 25.5561 49.5403 25.8377C49.8656 26.1135 50.111 26.4098 50.288 26.7248C50.4582 27.0349 50.5795 27.3062 50.6439 27.5279L50.743 27.8751C50.1993 27.9746 49.6964 28.3961 49.2285 29.1405C48.7653 29.8779 48.3507 30.8163 47.9904 31.9541C47.6349 33.0851 47.3389 34.313 47.1072 35.6309C46.8755 36.9488 46.7305 38.2509 46.6734 39.5428C46.6162 40.8347 46.6568 42.007 46.7893 43.0606L46.8766 43.6374C47.2256 45.5496 47.9322 46.4083 48.9907 46.2144C49.7833 46.0693 50.6299 44.7466 51.5236 42.2415C52.2224 40.305 52.8808 37.9509 53.4929 35.18C53.7523 33.7193 54.0345 32.3502 54.3405 31.0785L54.3812 30.8435L54.3824 30.9151C54.7444 29.3937 55.1586 28.0603 55.6287 26.9023C56.0941 25.7512 56.6229 24.816 57.2103 24.1038C57.7986 23.3971 58.4677 22.9692 59.2254 22.8305C60.2435 22.644 61.1508 22.6695 61.9452 22.8953C62.7405 23.1269 63.2942 23.4087 63.6126 23.7456C63.7349 23.8909 63.8055 24.0157 63.8266 24.1316C63.8615 24.3229 63.7665 24.49 63.5484 24.6377C62.5427 25.253 61.7512 26.3861 61.1738 28.0367C60.602 29.6864 60.1569 31.7021 59.8431 34.077C59.5303 36.4577 59.2498 39.048 59.0027 41.8538L58.7329 44.5022C60.5989 42.8371 62.2292 40.9936 63.6189 38.9786C65.0075 36.9577 66.0252 34.7054 66.6661 32.2227L66.7067 32.2153C66.7232 32.0841 66.7392 31.9535 66.7546 31.8233C66.9792 29.7462 66.9528 27.9305 66.6705 26.3835C66.4199 25.0102 65.8803 23.9532 65.0565 23.2058L65.6283 22.8017C66.0063 22.547 66.491 22.2546 67.0892 21.9293C67.6932 21.6032 68.3356 21.3239 69.0281 21.0893C69.282 21.0067 69.5392 20.9417 69.7995 20.8942C70.2391 20.8136 70.7319 20.7953 71.2758 20.8274C71.8207 20.8654 72.3506 21.1157 72.8596 21.5793C73.3697 22.0489 73.7281 22.8334 73.9279 23.9287C74.0294 24.485 74.0406 25.1357 73.9681 25.8854C74.6219 24.7178 75.3724 23.6222 76.2287 22.6151C76.8432 21.8873 77.5153 21.2386 78.2508 20.6636C78.0336 20.6313 77.8014 20.5903 77.5536 20.5401C76.9077 20.407 76.2426 20.1694 75.5586 19.8277C74.8792 19.479 74.2759 18.9906 73.7584 18.3488C73.2349 17.7081 72.8865 16.8797 72.7025 15.8714L72.6877 15.7903C72.4279 14.0714 72.9103 12.5877 74.1361 11.3453C75.2879 10.1882 77.1479 9.37454 79.7104 8.90533L80.1674 8.82163C82.0664 8.58165 84.1213 8.67244 86.3518 9.10225C88.5765 9.53322 90.8181 10.0569 93.0671 10.687C94.0845 10.9557 95.0767 11.2172 96.0474 11.4586C96.1238 10.0433 96.0664 8.77834 95.8633 7.66575C95.839 7.53245 95.7524 7.1232 95.6045 6.44369C95.4565 5.76418 94.9973 5.08178 94.2346 4.4071L94.8063 4.00299C95.1775 3.74339 95.6689 3.45577 96.2672 3.13061C96.8654 2.80553 97.5205 2.52982 98.2266 2.30472C98.5015 2.20645 98.7692 2.13357 99.0295 2.08584C99.446 2.00962 99.9272 1.99326 100.46 2.0276C100.999 2.06661 101.523 2.31788 102.038 2.78054C102.548 3.25005 102.906 4.03468 103.106 5.1299C103.259 5.97005 103.229 7.01754 103.01 8.27332C102.797 9.52808 102.464 10.9182 102.022 12.4545C102.682 12.4712 103.267 12.4359 103.788 12.3406C104.401 12.2282 104.799 11.9819 104.988 11.6118C105.094 11.3709 105.123 11.108 105.072 10.824L105.028 10.5864C105.716 10.4604 106.28 10.5367 106.715 10.8225C107.088 11.0655 107.308 11.3846 107.378 11.767C107.388 11.825 107.404 11.9777 107.425 12.2253C107.453 12.4719 107.24 12.8162 106.8 13.2501C106.36 13.6899 105.616 14.0057 104.564 14.1985C103.575 14.3796 102.533 14.4686 101.445 14.4703L100.84 16.5272C99.938 19.3811 99.1377 22.3001 98.4426 25.2719C97.7485 28.2493 97.4757 31.012 97.6228 33.554C97.6551 33.8295 97.69 34.0865 97.7333 34.3242C97.93 35.4019 98.3107 35.8831 98.8892 35.7772C99.4445 35.6755 99.9958 35.2572 100.543 34.5222C101.089 33.7814 101.605 32.9027 102.082 31.8811C102.564 30.8526 102.989 29.8407 103.356 28.8393C103.512 28.4202 103.654 28.0287 103.782 27.6648C103.904 27.0484 104.08 26.4391 104.309 25.8385C104.706 24.8076 105.239 23.9615 105.914 23.2991C105.735 22.7809 105.601 22.2725 105.508 21.7626C105.406 21.2063 105.354 20.5272 105.35 19.7196C105.34 18.913 105.529 18.0461 105.915 17.119C106.301 16.1859 106.897 15.3882 107.703 14.7257C108.508 14.0632 109.556 13.6138 110.846 13.3776C112.35 13.1022 113.67 13.13 114.812 13.4598C115.949 13.7906 116.916 14.3439 117.715 15.1197C119.042 16.4578 119.917 18.2737 120.337 20.5741C120.398 20.9101 120.475 21.4949 120.565 22.3168C120.662 23.1432 120.63 24.245 120.468 25.6161C121.428 25.0451 122.164 24.4612 122.672 23.8711C123.186 23.28 123.53 22.7739 123.711 22.3574L123.978 21.7275L126.859 21.2L126.576 22.0423C126.377 22.6178 126.027 23.3226 125.516 24.1587C125.011 24.9937 124.293 25.8437 123.362 26.7029C122.437 27.561 121.251 28.3051 119.812 28.9339C119.38 30.4023 118.792 31.7615 118.044 33.0062C117.298 34.2567 116.401 35.3013 115.349 36.1526C114.301 36.9972 113.116 37.5436 111.797 37.7851L111.797 37.785C110.258 38.0668 108.955 38.0001 107.874 37.5812C106.795 37.1682 105.929 36.5183 105.279 35.6432C104.853 35.083 104.505 34.4495 104.235 33.7437C103.948 34.3908 103.646 35.0231 103.33 35.6406C102.743 36.7839 102.124 37.7476 101.466 38.5328C100.81 39.3237 100.139 39.7759 99.4506 39.902L98.937 40.0679C98.5926 40.1789 98.1571 40.2825 97.6249 40.38L97.625 40.3802C96.283 40.6259 95.0927 40.5565 94.0541 40.1718C92.6899 39.6732 91.8489 38.5696 91.5369 36.8602C91.4068 36.1476 91.4222 35.2165 91.583 34.0672C91.7294 32.9715 91.959 31.7415 92.2603 30.3695C91.1727 30.6261 90.1411 30.9128 89.1642 31.2287C88.7941 32.9672 88.2409 34.6854 87.5082 36.3705C86.7825 38.0603 85.8905 39.6249 84.8493 41.0611C83.8025 42.4983 82.6186 43.7092 81.291 44.6888C79.9634 45.6685 78.5124 46.2994 76.9389 46.5876C75.088 46.9265 73.6793 46.8731 72.7181 46.4204C71.752 45.9745 71.1891 45.2812 71.0178 44.3424C71.0093 44.2962 70.9632 44.0111 70.8875 43.4981C70.8109 42.9792 71.1029 42.0574 71.7581 40.7338C71.256 40.4724 70.8386 39.986 70.5113 39.2735C70.018 40.9926 69.5883 42.7 69.2128 44.4096C68.8421 46.1122 68.5876 47.7637 68.455 49.3629C68.3223 50.962 68.3785 52.4488 68.6301 53.828C68.8163 54.8478 69.0358 55.7238 69.2947 56.4548C69.5479 57.187 69.7752 57.7442 69.9763 58.1265L70.2562 58.71L69.7589 58.867C69.4203 58.9769 68.9848 59.0806 68.4526 59.1781L68.4526 59.178C67.1048 59.4248 65.9145 59.3554 64.876 58.9706C63.5117 58.472 62.6765 57.3674 62.3656 55.6637C62.2345 54.9451 62.2442 54.0153 62.405 52.866C62.5591 51.7121 62.8055 50.4093 63.1366 48.9475C63.4629 47.4924 63.8311 45.94 64.232 44.3036C64.3751 43.7266 64.5164 43.1471 64.6559 42.5652C62.7643 45.0764 60.6194 47.3097 58.2203 49.2608C57.9417 51.5335 57.5908 53.7714 57.1659 55.963C56.7361 58.1616 56.1828 60.239 55.5019 62.208C54.82 64.1713 53.9729 65.9492 52.9524 67.5314C51.933 69.1193 50.7036 70.4403 49.265 71.5001C47.8197 72.5553 46.1148 73.2687 44.1364 73.631V73.6312C42.0367 74.0157 40.1563 74.0306 38.4945 73.6703C36.8396 73.3147 35.4719 72.6011 34.4101 71.532C33.3425 70.464 32.6553 69.0569 32.3349 67.3011C32.0928 65.9741 32.2677 64.7384 32.8636 63.5814C33.4594 62.4243 34.3626 61.3128 35.5718 60.2411C36.7819 59.1751 38.2136 58.1105 39.8677 57.053C41.5219 55.9956 43.2976 54.9159 45.1936 53.8082C47.1548 52.6647 49.1507 51.4487 51.1707 50.1687L51.5878 47.4755C51.0056 48.5103 50.3697 49.0879 49.6814 49.2138C48.8426 49.3675 47.97 49.3357 47.0658 49.13C46.1546 48.9195 45.2891 48.5332 44.4613 47.9602C43.6323 47.3815 42.9157 46.6324 42.3026 45.6967C41.8817 45.0473 41.5486 44.3128 41.3056 43.4948C41.285 43.5478 41.2643 43.6009 41.2434 43.6541C41.2338 43.6787 41.2241 43.7034 41.2144 43.7281C40.7243 44.9737 40.1658 46.1717 39.5447 47.3214C38.9294 48.47 38.2582 49.4432 37.531 50.2412C36.8106 51.0438 36.0474 51.5128 35.2434 51.6601L35.2432 51.6602C33.4153 51.9949 31.8436 51.7678 30.5259 50.9672C29.2138 50.1654 28.4165 49.0059 28.1394 47.4879C27.8031 45.6451 27.6705 43.903 27.7311 42.2691C27.7963 40.6283 27.9675 39.1418 28.248 37.797C28.5287 36.4521 28.8431 35.2928 29.1903 34.313C29.5329 33.34 29.843 32.5827 30.1033 32.0439L30.5029 31.2522C29.5293 31.7479 28.3525 32.1789 26.9729 32.5454C26.8247 33.8958 26.6166 35.1796 26.3622 36.4058C26.1067 37.6262 25.8789 38.638 25.6719 39.4364L25.3522 40.6328L25.3166 40.6393L25.2757 40.8024C25.0992 41.5055 24.827 42.4056 24.4489 43.5108C24.0697 44.6102 23.5759 45.8024 22.9644 47.0702C22.3472 48.339 21.6035 49.5709 20.7279 50.7673C19.8581 51.9626 18.8455 52.9982 17.6893 53.8687C16.533 54.7391 15.227 55.3136 13.7694 55.5806L13.7692 55.5806ZM79.3019 19.5074C79.3178 19.5942 79.3475 19.7117 79.3917 19.8631C80.4157 19.2295 81.5479 18.7966 82.7892 18.5693C84.1371 18.3225 85.2717 18.4142 86.2025 18.8305C87.1285 19.2538 87.8671 19.927 88.4076 20.858C88.898 21.6783 89.2476 22.6444 89.4506 23.7569C89.4692 23.8586 89.5112 24.1271 89.5792 24.5617L89.6501 25.0138C89.7607 25.7182 89.7528 26.8215 89.6138 28.32C90.683 27.9973 91.7893 27.7098 92.9349 27.459C93.0866 26.8223 93.2446 26.1707 93.41 25.5049C93.871 23.6419 94.32 21.7454 94.7509 19.816C95.1831 17.8926 95.5241 16.0276 95.7812 14.226C94.3963 14.1383 92.9667 14.1008 91.4846 14.1026C89.6391 14.1113 87.8347 14.2801 86.0589 14.6052C83.6757 15.0416 81.9285 15.6549 80.8222 16.4384C79.5943 17.31 79.0873 18.3311 79.3019 19.5074ZM22.4212 41.0796L22.4564 40.9687L22.7244 39.9583C22.9373 39.1588 23.163 38.1354 23.389 36.8844C23.6161 35.6392 23.7637 34.3187 23.8387 32.9276C23.5531 32.9177 23.2856 32.8917 23.0362 32.8497C22.7527 33.3409 22.4506 33.8066 22.1304 34.2465C21.3561 35.3104 20.5485 36.1589 19.6982 36.8057C18.8947 37.4139 18.1193 37.7835 17.3615 37.9223C17.3431 37.9256 17.2726 37.9352 17.15 37.9518L17.1488 37.952C17.0393 37.9669 16.8886 37.9874 16.6967 38.014C16.2829 38.0719 15.7862 37.8395 15.193 37.3074C14.6008 36.7811 14.1823 35.8636 13.9454 34.5657C14.1226 34.5871 14.3015 34.5843 14.4693 34.5536C14.9783 34.4603 15.5402 34.1001 16.1538 33.4666C16.7676 32.8332 17.4068 31.9137 18.0763 30.7013C18.7399 29.4899 19.3356 28.2012 19.8555 26.8245C20.3755 25.4478 20.7776 24.1466 21.0689 22.9255C21.4167 21.4247 21.5224 20.3334 21.3987 19.6555C21.3035 19.1341 21.065 18.9083 20.6833 18.9782C19.5495 19.1858 18.4224 19.7574 17.3009 20.6874C16.1737 21.6184 15.0861 22.7996 14.0508 24.2348C13.0097 25.6709 12.0467 27.2725 11.1652 29.0268C10.2849 30.7868 9.51773 32.6101 8.86365 34.4964C8.20958 36.3827 7.70598 38.2414 7.35955 40.0773C7.01312 41.9133 6.85331 43.6251 6.88798 45.2237C6.9029 45.9934 6.96928 46.7178 7.09302 47.3957C7.22104 48.097 7.46627 48.8844 7.83011 49.7639C8.19854 50.6366 8.88339 51.3436 9.89074 51.8836C10.8979 52.4238 12.2176 52.5474 13.8488 52.2486C14.7974 52.0749 15.6729 51.6631 16.4749 51.0132C17.2769 50.3633 18.0072 49.5829 18.6621 48.6845C19.3103 47.7813 19.8864 46.8435 20.3914 45.8767C20.8896 44.9052 21.3095 43.9959 21.6464 43.1558C21.9821 42.3099 22.2381 41.6162 22.4212 41.0796ZM41.7079 70.6746C43.8771 70.2774 45.6827 68.5754 47.1314 65.5735C48.3685 63.0175 49.4256 59.5065 50.306 55.0277L48.5263 56.216C46.8951 57.2691 45.3835 58.2885 43.9854 59.2751C42.5863 60.2559 41.3775 61.2318 40.3581 62.197C39.3397 63.1679 38.5886 64.1618 38.1 65.1854C37.6159 66.2023 37.4771 67.2756 37.6844 68.4112C37.8367 69.2458 38.2586 69.887 38.9537 70.3227C39.6442 70.765 40.5626 70.8843 41.7079 70.6746ZM75.9609 43.5211C76.6492 43.3951 77.3798 42.878 78.1584 41.969C78.9311 41.0609 79.6754 39.9307 80.3841 38.5732C81.0929 37.2159 81.7074 35.768 82.2345 34.2343C80.3521 35.3515 78.818 36.4768 77.6514 37.6185C76.4839 38.7546 75.6501 39.7875 75.1513 40.7232C74.7078 41.6008 74.5301 42.298 74.6253 42.8196C74.6338 42.8659 74.675 43.0261 74.7499 43.3057C74.8249 43.5854 75.2262 43.6557 75.9609 43.5211ZM72.5725 39.3331C73.534 37.8875 74.9033 36.4151 76.6774 34.9346C78.4574 33.4529 80.6219 32.0804 83.1712 30.8172C83.5496 28.9933 83.6387 27.5159 83.4314 26.3802C83.388 26.1426 83.2979 25.8118 83.1607 25.3878C83.0235 24.9638 82.7238 24.5994 82.2513 24.3028C81.7835 23.9993 81.1597 23.9219 80.3787 24.0649C79.3085 24.2608 78.3187 24.7654 77.4274 25.5814C76.5294 26.3925 75.7471 27.3802 75.0751 28.5451C74.4088 29.7091 73.8578 30.9479 73.4335 32.2591C73.0092 33.5704 72.7206 34.8388 72.5699 36.076C72.4238 37.3064 72.4243 38.3901 72.5725 39.3331ZM114.918 27.1413C115.348 24.5835 115.38 22.3021 115.015 20.3029C114.952 19.961 114.827 19.439 114.645 18.7359C114.457 18.0338 114.057 17.3825 113.447 16.7877C112.836 16.1929 112.045 15.9845 111.073 16.1624C110.159 16.3298 109.448 16.7235 108.937 17.3319C108.433 17.9452 108.118 18.6736 107.991 19.5173C107.9 20.1628 107.915 20.8366 108.041 21.5262C108.078 21.729 108.127 21.9354 108.19 22.1456C108.929 22.0343 109.556 22.0331 110.077 22.1354C110.597 22.2377 111.033 22.3975 111.377 22.6099C111.714 22.8178 111.982 23.044 112.181 23.283C112.374 23.5231 112.514 23.7311 112.593 23.9022L112.706 24.1629C111.972 24.5309 111.337 25.1084 110.799 25.8955C111.892 26.7133 113.266 27.1324 114.918 27.1413H114.918ZM110.618 35.1564C111.387 35.0156 112.084 34.4749 112.711 33.5218C113.332 32.5696 113.853 31.3963 114.261 29.9981C112.467 29.8596 110.907 29.307 109.598 28.325C109.311 29.1741 109.106 30.0141 108.988 30.8441C108.845 31.8641 108.848 32.762 108.991 33.5443C109.216 34.7785 109.756 35.3143 110.618 35.1565L110.618 35.1564ZM79.8242 84.8723L79.9572 84.8479L79.9571 84.8478C80.4893 84.7503 80.9247 84.6466 81.269 84.5356L81.7654 84.3728L81.4808 83.7962C81.2854 83.4129 81.0524 82.8567 80.7945 82.1315C80.5309 81.4072 80.3112 80.5313 80.123 79.4999C79.6503 76.9096 79.9163 73.4536 80.9256 69.1249L81.6513 68.9741C83.2651 68.6786 84.5207 68.7121 85.4177 69.0748C85.9229 69.2878 86.2172 69.623 86.3018 70.0865L86.6865 69.7048C86.9339 69.4559 87.2071 69.1184 87.5028 68.675C87.8053 68.2364 88.0458 67.7193 88.2298 67.1228C88.4138 66.5262 88.4406 65.8865 88.3137 65.1911C88.1634 64.3683 87.8148 63.7675 87.2637 63.4013C86.7127 63.0351 86.1104 62.8461 85.4576 62.8398C84.8107 62.8325 84.2148 62.8758 83.671 62.9754C83.2892 63.0454 82.8944 63.1416 82.4969 63.2563L83.1643 61.0501C83.7987 58.9578 84.3417 57.02 84.7981 55.2298C85.2555 53.4454 85.4928 51.9289 85.509 50.6743C87.4629 50.1129 89.4127 49.6601 91.3677 49.302C93.2151 48.9757 94.7365 48.8288 95.9505 48.864C97.1586 48.9002 97.809 49.1883 97.9052 49.7156L98.2956 49.3327C98.5373 49.0849 98.8094 48.7416 99.1109 48.2972C99.4054 47.848 99.6517 47.3298 99.8414 46.7322C100.031 46.1345 100.064 45.4939 99.938 44.8043C99.8036 44.0683 99.3809 43.553 98.6742 43.2512C97.9628 42.9564 97.138 42.826 96.1949 42.8669C95.2508 42.9021 94.3312 43.0047 93.4345 43.1689C91.8091 43.4665 89.9146 43.9931 87.752 44.7544C86.2185 45.2928 84.6801 45.9039 83.1334 46.6003C82.5773 46.4686 81.9894 46.4566 81.3762 46.5688L80.9918 46.6572C80.2331 46.8561 79.5179 47.1307 78.8467 47.4812C78.1754 47.8316 77.6303 48.1531 77.2045 48.4407L76.5628 48.8875C76.8029 49.0891 77.0135 49.3259 77.2004 49.5971C75.2044 50.7471 73.6071 51.854 72.4074 52.912C71.203 53.977 70.6637 54.8542 70.7895 55.5438C70.854 55.8972 70.9647 56.1764 71.1112 56.3891C71.2634 56.6007 71.4256 56.7686 71.5966 56.887C71.7734 57.0044 71.9381 57.088 72.107 57.1289C72.2691 57.1652 72.4047 57.1881 72.5131 57.1922L72.6699 57.1995C72.9075 56.5691 73.5286 55.9104 74.5341 55.2292C75.5442 54.5412 76.808 53.8667 78.3389 53.2151C78.4774 54.9563 78.3835 56.9316 78.0402 59.1443C77.7036 61.3617 77.2529 63.6419 76.6893 65.9906C75.5713 66.7104 74.5727 67.4622 73.684 68.2596C72.7943 69.0514 72.1066 69.8361 71.613 70.6031C71.1251 71.369 70.9327 72.051 71.0395 72.6363C71.104 72.9898 71.209 73.27 71.3496 73.4838C71.4961 73.6964 71.6582 73.8644 71.835 73.9817C72.0187 74.1037 72.1881 74.1805 72.3512 74.2225C72.5201 74.2634 72.6558 74.2865 72.7573 74.2858L72.9198 74.292C73.3096 73.2506 74.1245 72.3109 75.3655 71.4788C74.8374 73.6295 74.4095 75.5762 74.0799 77.3072C73.757 79.043 73.6783 80.3808 73.8518 81.3312C74.0252 82.2815 74.3394 83.0204 74.7885 83.5489C75.2424 84.0706 75.7713 84.4468 76.3664 84.6611C76.9683 84.8802 77.5858 84.9888 78.2133 84.9877C78.7897 85.0019 79.3268 84.9634 79.8242 84.8723ZM91.8703 81.3069C93.1154 82.1028 94.7094 82.3199 96.6645 81.9619L96.6646 81.9622C97.4917 81.8107 98.2655 81.3336 98.9984 80.5348C99.1088 80.4136 99.2179 80.2883 99.3257 80.1588C99.5608 80.6489 99.8767 81.0679 100.271 81.4152C100.975 82.0289 101.82 82.4369 102.815 82.644C103.814 82.8444 104.613 82.9016 105.229 82.8067C105.84 82.7128 106.205 82.6519 106.315 82.6317H106.315C107.31 82.4495 108.282 82.1398 109.229 81.697C110.28 81.1991 111.215 80.5549 112.025 79.7538C112.836 78.9585 113.444 78.0326 113.837 76.9728C114.236 75.9176 114.317 74.7589 114.086 73.4899C113.758 71.6936 113.059 70.1927 111.993 68.9989C113.575 68.3069 115.404 67.7135 117.476 67.2193C117.17 68.589 116.941 69.8163 116.795 70.9099C116.634 72.0591 116.625 72.9891 116.755 73.7018C117.065 75.3997 117.906 76.5032 119.284 77.0113C120.322 77.396 121.507 77.4663 122.843 77.2217C123.387 77.1221 123.828 77.0175 124.166 76.9075L124.663 76.7447C124.372 75.1512 124.378 73.5153 124.689 71.8417C124.992 70.1632 125.477 68.5295 126.142 66.9346C126.802 65.3406 127.539 63.8464 128.349 62.4524C129.165 61.0575 129.95 59.8239 130.707 58.7631C131.463 57.7023 132.1 56.8671 132.605 56.2597L133.354 55.3502L132.947 56.0055C132.674 56.4388 132.359 57.0714 132.002 57.9031C131.646 58.7348 131.323 59.7519 131.036 60.9603C130.747 62.163 130.572 63.5304 130.511 65.0626C130.444 66.5958 130.579 68.2837 130.915 70.1264C131.192 71.6446 131.984 72.8051 133.296 73.6068C134.602 74.4096 136.168 74.6377 138.002 74.3019C138.725 74.1695 139.43 73.7109 140.121 72.9137C140.808 72.1233 141.462 71.1533 142.066 70.0067C142.675 68.8591 143.228 67.662 143.73 66.4144C144.237 65.1658 144.667 63.9852 145.04 62.8869C145.413 61.7828 145.697 60.8805 145.896 60.1732L146.194 59.1187L143.429 59.625L143.073 60.6544C142.842 61.3553 142.526 62.2097 142.125 63.2232C141.725 64.2425 141.284 65.2635 140.785 66.2951C140.291 67.3256 139.778 68.216 139.239 68.9615C138.706 69.7118 138.185 70.1305 137.676 70.2238C137.248 70.3021 136.964 70.0548 136.822 69.4759C136.682 68.9029 136.591 68.5062 136.552 68.2918C136.397 67.44 136.323 66.4116 136.324 65.2076C136.329 63.6977 136.469 62.1032 136.755 60.4281C137.04 58.7469 137.473 57.1887 138.063 55.7392C138.655 54.2955 139.417 53.1678 140.353 52.3676C140.456 52.2769 140.497 52.1737 140.477 52.0636C140.447 51.9013 140.3 51.7186 140.041 51.5086C139.602 51.1697 138.887 50.8875 137.88 50.6708C136.876 50.4474 135.645 50.4154 134.178 50.5643C133.241 50.736 132.193 51.5805 131.047 53.0959C129.901 54.6112 128.76 56.449 127.631 58.614C126.508 60.7836 125.514 62.9358 124.655 65.0751C123.796 67.2146 123.19 69.0024 122.847 70.4304C122.705 67.8815 122.984 65.1236 123.678 62.1461C124.373 59.1744 125.168 56.2563 126.058 53.4047C126.548 51.7941 126.987 50.2705 127.383 48.8385C127.772 47.402 128.067 46.1024 128.26 44.9294C128.459 43.7611 128.482 42.7748 128.335 41.9694C128.135 40.8741 127.777 40.0895 127.267 39.62C126.758 39.1563 126.234 38.905 125.695 38.866C125.156 38.8327 124.675 38.8491 124.259 38.9253C123.987 38.9751 123.713 39.0491 123.439 39.1474C122.744 39.3704 122.1 39.6439 121.496 39.9702C120.898 40.2954 120.412 40.5819 120.036 40.8425L119.464 41.2467C120.29 42.0056 120.834 43.0857 121.089 44.4879C121.358 45.9597 121.375 47.7532 121.145 49.8672C120.926 51.8117 120.581 53.8567 120.118 56.0015C119.649 58.1474 119.156 60.2617 118.639 62.3444C118.469 63.0204 118.306 63.6821 118.149 64.3283C117.21 64.5545 116.219 64.8297 115.176 65.1522C113.417 65.6961 111.659 66.3532 109.898 67.1188L108.87 66.397C108.256 65.9825 107.681 65.5488 107.139 65.1031C106.599 64.6632 106.13 64.1562 105.738 63.5812C105.347 63.0121 105.079 62.3305 104.934 61.5367C104.802 60.8123 104.911 60.1637 105.255 59.5917C105.599 59.0197 106.043 58.573 106.577 58.2538C107.116 57.9334 107.646 57.7227 108.166 57.6273C108.918 57.4896 109.597 57.5749 110.193 57.891C110.682 58.1486 110.988 58.6136 111.11 59.2799C111.235 59.9637 111.079 60.6509 110.639 61.3484C110.199 62.0517 109.722 62.4504 109.201 62.5457C109.302 63.0962 109.632 63.4969 110.177 63.7324C110.729 63.9726 111.22 64.0743 111.654 64.0307C112.084 63.994 112.366 63.9663 112.505 63.9409C113.077 63.836 113.638 63.6316 114.181 63.3345C114.851 62.9782 115.382 62.4797 115.772 61.8334C116.163 61.1871 116.271 60.4067 116.104 59.4912C115.901 58.3787 115.435 57.4938 114.711 56.8359C113.98 56.1734 113.095 55.7126 112.056 55.4539C111.015 55.1894 110.101 55.0934 109.319 55.1647C108.53 55.2314 107.939 55.3035 107.54 55.3767C106.788 55.5144 106.048 55.7159 105.327 55.9915C104.215 56.4167 103.224 56.9814 102.361 57.6904C101.498 58.3994 100.849 59.2309 100.42 60.1897C99.9847 61.1437 99.8727 62.2003 100.083 63.3533C100.259 64.3152 100.57 65.1384 101.005 65.8192C101.332 66.3222 101.695 66.779 102.099 67.1939L102.082 67.1971L101.784 68.2516C101.584 68.959 101.305 69.8185 100.943 70.8489C100.58 71.8735 100.159 72.9086 99.6805 73.9544C99.2017 75.0002 98.6736 75.9053 98.1084 76.6735C97.5422 77.4359 96.9582 77.8722 96.3624 77.9812C95.865 78.0723 95.5565 77.8894 95.4362 77.4263C95.3158 76.9633 95.2414 76.6536 95.2149 76.5087C95.0827 75.7843 95.034 74.8951 95.0619 73.8361C95.0948 72.5426 95.2218 71.142 95.4466 69.6218C95.6724 68.1073 95.9733 66.645 96.3428 65.23C96.7191 63.8197 97.136 62.5995 97.6074 61.5791C98.0728 60.5596 98.5614 59.8953 99.0623 59.594C99.292 59.4441 99.3939 59.2818 99.3611 59.1022C99.3378 58.9746 99.2672 58.8499 99.1472 58.7162C98.8266 58.3677 98.2662 58.081 97.4649 57.8506C96.6648 57.6259 95.7632 57.5993 94.7567 57.7837C93.9759 57.9267 93.2831 58.3889 92.6717 59.1655C92.0612 59.9479 91.5342 60.9248 91.0924 62.1075C90.6438 63.2855 90.288 64.5782 90.0133 65.9878C89.7385 67.3975 89.5373 68.8176 89.4072 70.2666C89.2819 71.7088 89.2326 73.0772 89.2655 74.3706C89.2983 75.6639 89.3988 76.7713 89.568 77.6985C89.8619 79.3094 90.6251 80.511 91.8703 81.3069ZM104.325 69.0608C104.201 69.4814 104.061 69.9421 103.906 70.4441C103.905 70.4482 103.903 70.4523 103.902 70.4563C104.286 70.1797 104.687 69.9088 105.105 69.6435C104.867 69.4535 104.624 69.2704 104.371 69.0953C104.355 69.0838 104.34 69.0723 104.325 69.0608ZM96.7258 54.848C97.1261 54.9125 97.4916 54.9174 97.8329 54.8548V54.855C98.0701 54.8115 98.2951 54.7344 98.508 54.6235C99.0137 54.3812 99.3105 54.0095 99.4053 53.5131C99.4345 53.346 99.4339 53.1784 99.4053 53.0221C99.3472 52.7033 99.188 52.4211 98.9316 52.1626C98.5462 51.7542 98.0122 51.4808 97.3303 51.3481C96.9359 51.2825 96.5646 51.2787 96.229 51.3401C95.9918 51.3836 95.7726 51.4597 95.5654 51.5694C95.054 51.8128 94.7455 52.1866 94.6509 52.683C94.6216 52.8501 94.6223 53.0177 94.6509 53.1741C94.7069 53.4812 94.866 53.7635 95.1245 54.0335C95.5157 54.4409 96.0498 54.7143 96.7258 54.848ZM107.458 79.2307C106.893 79.8372 106.087 80.2362 105.041 80.428V80.4281C103.548 80.7014 102.684 80.189 102.446 78.8852C102.244 77.7784 102.671 76.4545 103.735 74.9124C104.503 73.8136 105.658 72.7098 107.195 71.5962C107.891 72.4626 108.336 73.459 108.54 74.5775C108.694 75.4234 108.698 76.2611 108.538 77.0868C108.377 77.9127 108.017 78.6253 107.458 79.2307Z" fill="white"/>
</g>
<defs>
<clipPath id="clip0_11_24">
<rect width="149" height="87" fill="white"/>
</clipPath>
</defs>
</svg>
