<svg width="316" height="184" viewBox="0 0 316 184" fill="none" xmlns="http://www.w3.org/2000/svg">
<g clip-path="url(#clip0_132_1122)">
<path fill-rule="evenodd" clip-rule="evenodd" d="M222.676 18.1023C224.763 17.8441 226.843 18.1525 228.649 19.3311C230.361 20.4486 231.543 22.1048 231.912 24.1219C231.944 24.2963 231.968 24.4759 231.989 24.6569C232.753 24.4357 233.531 24.2558 234.317 24.1122C237.737 23.4877 241.312 23.4113 244.677 24.384C247.677 25.2517 250.368 26.7526 252.612 28.9253L252.641 28.9538L252.67 28.9828C256.411 32.7466 258.451 37.5886 259.395 42.7482C259.424 42.9037 259.45 43.06 259.476 43.2171L259.917 42.1832L275.373 39.3603L272.462 48.0139C271.822 49.8492 270.838 51.6483 269.828 53.3043C268.399 55.6476 266.525 57.7398 264.513 59.5966C262.46 61.4902 260.086 63.0167 257.583 64.2582C256.657 66.9508 255.467 69.5435 253.998 71.9909C252.217 74.9582 250.002 77.5934 247.302 79.7682C244.535 81.9973 241.361 83.4544 237.865 84.093C234.328 84.7387 230.65 84.7522 227.254 83.4483C225.086 82.6157 223.163 81.4073 221.54 79.8267C220.622 81.3668 219.601 82.8492 218.455 84.2194C216.857 86.1298 214.887 87.7224 212.479 88.3879C214.412 89.6669 215.695 91.5987 216.134 93.9949C216.511 96.0536 216.435 98.1252 215.798 100.125C215.306 101.67 214.636 103.156 213.733 104.507C213.237 105.247 212.699 105.977 212.11 106.654C212.374 106.874 212.628 107.111 212.871 107.364C213.967 108.48 214.721 109.83 215.004 111.375C215.16 112.228 215.161 113.107 215.001 113.959C214.547 116.383 213.02 118.254 210.817 119.328L210.755 119.359C211.378 119.674 211.971 120.042 212.512 120.475C213.096 119.857 213.724 119.274 214.392 118.726C216.632 116.891 219.158 115.48 221.862 114.449C223.626 113.776 225.451 113.278 227.308 112.939C228.669 112.69 230.095 112.558 231.473 112.437C233.88 112.226 236.351 112.575 238.685 113.161C241.468 113.859 244.006 115.127 246.137 117.056C247.702 118.473 248.831 120.179 249.578 122.076C249.923 120.564 250.261 119.051 250.591 117.536C251.493 113.397 252.23 109.21 252.697 104.999C253.059 101.73 253.218 98.1044 252.623 94.8539C252.326 93.2295 251.734 91.5108 250.484 90.3658L246.595 86.8016L252.156 82.8831C253.267 82.1169 254.46 81.4384 255.647 80.7971C257.175 79.9716 258.776 79.3012 260.428 78.7683C261.19 78.5009 261.971 78.2898 262.765 78.145C264.109 77.8997 265.498 77.8687 266.859 77.9598C269.127 78.1114 271.12 79.1435 272.779 80.6578C274.858 82.5562 275.864 85.2931 276.359 87.9991C276.821 90.5241 276.632 93.2081 276.21 95.7257C275.719 98.6523 275.043 101.554 274.257 104.415C273.357 107.693 272.415 110.958 271.409 114.205L271.409 114.206C272.398 112.673 273.438 111.176 274.536 109.729C276.811 106.728 279.929 103.468 283.8 102.761L283.967 102.73L284.137 102.713C287.154 102.408 290.348 102.365 293.324 103.015C295.479 103.485 297.831 104.212 299.598 105.573L299.637 105.603L299.674 105.633C300.874 106.602 301.825 107.791 302.11 109.348C302.429 111.093 301.773 112.833 300.429 113.983C298.746 115.422 297.573 117.469 296.743 119.495C295.556 122.394 294.751 125.431 294.225 128.516C293.695 131.62 293.38 134.772 293.371 137.922C293.369 138.88 293.388 139.865 293.452 140.846C293.914 140.032 294.344 139.2 294.746 138.365C295.729 136.329 296.633 134.257 297.463 132.154C298.141 130.439 298.813 128.702 299.391 126.95L299.411 126.889L300.98 122.37L316.001 119.626L313.512 128.42C312.946 130.418 312.299 132.402 311.632 134.368C310.752 136.958 309.794 139.523 308.766 142.058C307.662 144.782 306.431 147.453 305.054 150.05C303.748 152.511 302.213 154.893 300.381 156.997C298.542 159.11 296.25 160.812 293.441 161.325C288.926 162.149 284.44 161.723 280.476 159.3C276.659 156.968 274.267 153.474 273.462 149.078C272.959 146.329 272.619 143.528 272.527 140.725C272.155 141.543 271.796 142.367 271.451 143.196C270.174 146.262 269.224 149.443 268.625 152.708C268.086 155.644 268.033 158.607 268.571 161.547L269.238 165.195L264.657 166.694C263.568 167.05 262.418 167.294 261.291 167.5C258.005 168.1 254.664 168.026 251.506 166.862C249.113 165.98 247.264 164.54 245.916 162.695C245.775 163.229 245.607 163.759 245.409 164.285C244.35 167.108 242.717 169.593 240.565 171.706C238.488 173.745 236.101 175.392 233.464 176.631C231.162 177.711 228.741 178.485 226.24 178.942C225.559 179.066 224.868 179.172 224.182 179.276L223.817 179.332C221.655 179.664 219.329 179.385 217.2 178.951C214.616 178.425 212.247 177.359 210.217 175.694C208.885 176.582 207.406 177.227 205.772 177.525C201.219 178.357 196.543 178.086 192.552 175.542C188.768 173.13 186.575 169.477 185.772 165.092C185.311 162.57 185.128 159.959 185.063 157.398C185.018 155.648 185.04 153.896 185.117 152.146L180.295 156.918L179.003 149.855C177.907 149.603 176.412 149.698 175.173 149.862C174.009 155.459 173.135 162.046 174.111 167.374C174.41 169.009 174.787 170.697 175.352 172.263C175.712 173.261 176.11 174.346 176.594 175.291L179.398 180.957L173.68 182.827C172.597 183.181 171.459 183.424 170.339 183.629L170.057 183.68C168.663 183.935 167.242 184.025 165.826 183.994C164.008 183.99 162.222 183.667 160.513 183.05C158.507 182.326 156.779 181.086 155.39 179.475C153.759 177.584 152.886 175.203 152.442 172.775C151.859 169.591 152.334 165.867 152.93 162.713C153.021 162.23 153.114 161.748 153.209 161.266C152.943 161.222 152.677 161.165 152.415 161.1C151.546 160.883 150.743 160.502 149.999 160.009C149.13 159.434 148.408 158.681 147.818 157.827L147.792 157.789L147.768 157.752C147.096 156.734 146.696 155.579 146.477 154.385C145.997 151.76 146.891 149.218 148.297 147.027C149.696 144.849 151.511 142.912 153.439 141.194C155.16 139.661 156.987 138.253 158.89 136.954C159.846 132.814 160.658 128.641 161.305 124.441C161.559 122.789 161.763 121.105 161.887 119.414C161.402 119.706 160.925 120.009 160.46 120.324C159.915 120.694 158.357 121.837 158.099 122.476L157.008 125.362L154.232 125.233L154.96 126.748L149.224 128.553C148.154 128.89 147.043 129.137 145.94 129.338C142.646 129.94 139.293 129.87 136.125 128.709C131.516 127.019 128.948 123.221 128.082 118.49C127.652 116.141 127.812 113.585 128.135 111.232C128.429 109.09 128.818 106.956 129.261 104.836C128.676 105.36 128.084 105.876 127.483 106.383C126.924 110.666 126.241 114.933 125.413 119.172C124.501 123.846 123.291 128.461 121.728 132.96C120.247 137.222 118.327 141.332 115.878 145.127C113.495 148.819 110.547 152.05 106.995 154.647C103.235 157.398 98.939 159.071 94.3707 159.905C89.8842 160.725 85.2253 160.927 80.7443 159.962C76.6507 159.081 72.9391 157.262 69.9674 154.287C66.8975 151.215 65.1676 147.338 64.3924 143.101C63.7192 139.423 64.2003 135.848 65.9177 132.522C67.5645 129.333 69.945 126.583 72.6277 124.219C75.6236 121.58 78.8992 119.226 82.2642 117.081C86.0274 114.682 89.8491 112.374 93.7062 110.129C95.0531 109.345 96.3954 108.553 97.7328 107.753C95.6352 107.137 93.6768 106.177 91.8691 104.924C90.4127 103.914 89.1205 102.731 87.9806 101.405C87.8587 101.636 87.7357 101.867 87.6114 102.098C86.2605 104.602 84.6633 106.999 82.7486 109.11C80.8012 111.257 78.4046 112.909 75.5097 113.438C70.9936 114.263 66.5003 113.836 62.5295 111.423C58.7043 109.098 56.2995 105.597 55.4944 101.198C55.1979 99.5766 54.9611 97.9414 54.7965 96.2994C54.1053 98.0297 53.3429 99.7329 52.5302 101.406C51.084 104.383 49.3482 107.207 47.3943 109.878C45.3227 112.708 42.8777 115.219 40.0714 117.326C37.0653 119.583 33.6687 121.054 29.9674 121.73C25.147 122.61 19.961 122.769 15.2951 121.066C11.2429 119.587 7.86361 117.101 5.41023 113.55C3.04999 110.134 1.60364 106.266 0.859038 102.196C0.72409 101.459 0.600031 100.717 0.476131 99.9757C0.419018 99.6341 0.361939 99.2927 0.303842 98.952C-0.264212 95.619 0.0832801 91.356 0.401265 87.9981C0.870247 83.0463 1.82569 78.1539 3.17411 73.3673C4.56045 68.4456 6.36303 63.6507 8.55694 59.0314C10.6775 54.5664 13.1823 50.2818 16.1099 46.2958C18.8114 42.6175 21.9392 39.2337 25.5583 36.439C28.9454 33.8234 32.7493 31.9076 36.9822 31.1344C40.2753 30.533 43.6731 30.5487 46.8539 31.6848C49.7476 32.7183 52.2089 34.4596 54.0804 36.8958C55.8874 39.248 57.0289 41.9537 57.5621 44.8673C57.9773 47.1367 58.1815 49.4435 58.1585 51.7488C59.6051 52.6739 60.6224 53.9744 61.2912 55.4788C62.7974 55.4245 64.5005 55.124 65.8704 54.8737C68.3002 54.43 70.8274 54.2375 73.2866 54.5395C75.2098 54.7755 77.1794 55.1971 78.9549 55.9902C81.3329 57.0525 83.6342 58.6905 84.1358 61.4302C84.4393 63.0885 83.9034 64.7485 82.6908 65.921L82.5906 66.0179L82.4841 66.1082C78.7958 69.2341 77.0328 76.4627 76.2159 80.9753C75.6402 84.1544 75.2073 87.3993 75.1254 90.6319C75.1031 91.5077 75.0971 92.4136 75.1252 93.3216C75.6074 92.4898 76.0558 91.6386 76.4778 90.7854C77.5074 88.7026 78.4711 86.5858 79.3497 84.435C80.0758 82.6581 80.801 80.8665 81.4434 79.0577L82.0543 77.3371C82.1244 75.6276 82.2595 73.9208 82.4503 72.2206C82.8197 68.9258 83.4934 65.6753 84.5294 62.524C85.5279 59.4872 86.9687 56.6052 89.0068 54.1275C91.2124 51.4462 94.0767 49.7229 97.4968 49.0981C99.4789 48.7362 101.548 48.6502 103.506 49.1981C105.085 49.6399 106.575 50.3442 107.828 51.4127C108.843 52.2787 109.718 53.2862 110.369 54.4547C110.825 55.2733 111.237 56.1476 111.496 57.05L112.361 60.0692C112.851 58.4537 113.403 56.8575 114.037 55.2985C115.047 52.8111 116.337 50.3372 118.059 48.2636C119.828 46.1346 122.093 44.6064 124.841 44.1045C127.392 43.6388 130.042 43.6184 132.548 44.3375C133.591 44.6364 134.645 45.0191 135.62 45.5357L136.772 44.7245L136.811 44.698C137.919 43.9528 139.085 43.2758 140.26 42.6409C141.793 41.8125 143.393 41.1245 145.046 40.5722C145.771 40.3296 146.514 40.1463 147.267 40.009C148.638 39.7585 150.046 39.718 151.435 39.8073C151.624 39.8195 151.811 39.8376 151.996 39.8616C150.994 38.1691 150.363 36.2849 150.005 34.3326L149.961 34.0961L149.951 34.0308C149.198 29.063 150.666 24.5673 154.21 21.0001C157.873 17.3135 163.289 15.5658 168.286 14.6532L169.371 14.4551L169.488 14.4404C174.3 13.8339 179.191 14.1621 183.942 15.0775C188.84 16.0213 193.695 17.1844 198.505 18.5039C198.793 18.5833 199.083 18.6617 199.372 18.7393C199.311 18.1458 199.23 17.5567 199.124 16.9762C199.014 16.3771 198.878 15.7692 198.744 15.1674L198.744 15.1672C198.696 14.9548 198.649 14.7431 198.603 14.5328C198.455 13.854 197.529 12.9387 197.038 12.5053L193.004 8.94696L198.614 4.99309C199.723 4.21104 200.943 3.53176 202.136 2.88507C203.674 2.05148 205.297 1.37927 206.963 0.845723C207.711 0.5829 208.477 0.372938 209.257 0.230328C210.599 -0.0147098 211.987 -0.0448455 213.345 0.0478672C215.61 0.202498 217.6 1.22678 219.261 2.73341C221.351 4.6285 222.357 7.37464 222.852 10.0845C223.33 12.696 223.119 15.4956 222.676 18.1018V18.1023ZM195.265 87.5485C192.346 85.5503 190.625 82.4223 189.948 78.7211C189.895 78.4329 189.852 78.1412 189.816 77.847C189.709 78.1017 189.601 78.3556 189.491 78.6091C187.85 82.3968 185.82 86.0045 183.388 89.3423C182.763 90.2005 182.108 91.0341 181.423 91.8405C182.509 91.4273 183.6 91.0283 184.696 90.6438C188.133 89.4385 191.686 88.3365 195.265 87.5487L195.265 87.5485ZM155.517 102.981C154.445 102.79 153.404 102.483 152.426 102.029C151.499 101.597 150.656 101.075 149.911 100.466C149.704 101.889 149.538 103.318 149.419 104.751C149.273 106.503 149.238 108.273 149.358 110.031C149.814 109.567 150.284 109.129 150.75 108.718C152.601 107.088 154.628 105.591 156.723 104.207L155.376 103.079L155.517 102.981L155.517 102.981ZM199.688 118.135C199.332 117.858 198.993 117.554 198.673 117.221C197.595 116.1 196.833 114.762 196.552 113.224C196.396 112.371 196.395 111.492 196.555 110.64C196.741 109.647 197.111 108.748 197.633 107.958C196.577 108.101 195.534 108.273 194.526 108.453C191.454 109.005 188.407 109.682 185.389 110.472C185.106 112.971 184.573 115.476 183.961 117.862C183.034 121.478 182.024 125.074 180.957 128.652C181.066 128.652 181.174 128.653 181.283 128.654C183.497 128.677 185.576 129.327 187.421 130.549C187.857 130.838 188.256 131.158 188.62 131.504C188.807 130.95 189.003 130.399 189.21 129.852C190.195 127.248 191.467 124.703 193.193 122.507C194.875 120.367 197.034 118.757 199.688 118.135ZM208.817 137.67C208.684 138.128 208.558 138.586 208.437 139.044C207.668 141.949 207.074 144.899 206.631 147.871C206.218 150.649 205.933 153.459 205.86 156.269C205.847 156.782 205.84 157.312 205.847 157.846C206.476 156.812 207.035 155.731 207.537 154.638C208.47 152.605 209.324 150.534 210.07 148.425C210.68 146.7 211.273 144.952 211.771 143.191L211.788 143.131C211.382 142.607 210.999 142.065 210.639 141.506C209.864 140.307 209.267 139.015 208.817 137.67H208.817ZM226.821 129.822L226.692 129.117C226.701 129.204 226.714 129.292 226.73 129.382C226.757 129.529 226.787 129.675 226.821 129.822ZM226.684 128.857L230.547 128.152C230.726 127.969 230.94 127.649 231.043 127.484C231.283 127.104 231.544 126.605 231.459 126.137C231.456 126.121 231.452 126.103 231.448 126.083C231.037 125.952 230.589 125.981 230.165 126.058C229.478 126.184 228.8 126.5 228.205 126.855C227.638 127.192 227.208 127.663 226.869 128.225C226.745 128.432 226.692 128.64 226.684 128.857H226.684ZM225.923 158.073C225.013 158.947 224.177 159.88 223.495 160.86C222.674 162.041 221.213 164.426 221.439 165.996C221.651 165.979 221.876 165.944 222.006 165.92C222.952 165.748 224.103 165.405 224.782 164.676C225.44 163.968 225.827 163.172 226.011 162.224C226.253 160.982 226.235 159.735 226.007 158.491C225.982 158.351 225.954 158.211 225.923 158.073V158.073ZM220.733 34.491C219.945 34.5959 219.154 34.6766 218.361 34.7348L217.931 36.1954L217.918 36.2361C216.019 42.2287 214.353 48.2955 212.92 54.4159C211.855 58.9634 211.184 63.6753 211.212 68.3631C211.735 67.4719 212.21 66.5497 212.644 65.6232C213.582 63.6242 214.442 61.5888 215.209 59.5183C215.475 58.8004 215.738 58.0809 215.995 57.3596C216.298 55.9167 216.719 54.5005 217.247 53.1238C217.917 51.3814 218.786 49.7361 219.89 48.2532C219.772 47.769 219.667 47.2811 219.577 46.7902C219.275 45.1392 219.188 43.417 219.174 41.7407C219.153 39.2675 219.752 36.8462 220.699 34.5727C220.71 34.5454 220.722 34.5182 220.733 34.491ZM111.478 62.5685L108.617 63.0905C108.401 63.2904 108.127 63.6985 108.004 63.8933C107.058 65.3943 106.367 67.1758 105.834 68.8609C105.087 71.2248 104.525 73.6532 104.095 76.0937C103.644 78.6476 103.35 81.2273 103.235 83.8183C103.137 86.034 103.171 88.2845 103.445 90.4877L103.611 91.5837C103.623 91.6473 103.638 91.7203 103.654 91.8003C104.349 90.3656 105.002 88.6405 105.268 87.9014C106.939 83.2546 108.206 78.3887 109.276 73.5706C109.797 70.6547 110.387 67.7484 111.078 64.8679L111.478 62.5685ZM137.026 55.712L136.991 55.7334C135.387 56.7119 134.345 59.0036 133.754 60.695C132.428 64.4942 131.659 68.6458 131.133 72.6266C130.723 75.7271 130.362 78.8349 130.037 81.9463C130.511 81.3155 130.973 80.6749 131.422 80.0245C134.146 76.0787 136.068 71.7223 137.268 67.0847L137.356 66.742C137.729 63.4124 137.816 59.8686 137.211 56.5631C137.159 56.28 137.098 55.9951 137.026 55.7119V55.712ZM44.676 80.9733C44.5664 81.0593 44.4559 81.1444 44.3448 81.2286C42.338 82.7472 40.0798 83.9273 37.5855 84.3828C37.2362 84.4466 36.8692 84.493 36.5068 84.5389C36.3351 84.5606 36.1644 84.5822 35.9971 84.6054C33.4521 84.9595 31.2239 83.706 29.3915 82.0747C27.049 79.9894 25.9414 76.8734 25.3913 73.8679L24.6111 69.6044C23.9701 71.1698 23.372 72.753 22.8163 74.3512C21.5454 78.0065 20.5073 81.7462 19.7878 85.5495C19.1658 88.8371 18.7903 92.2067 18.8607 95.5556C18.8884 96.8652 18.9913 98.1846 19.2273 99.4742C19.4845 100.88 19.9788 102.291 20.5299 103.606C20.9869 104.697 21.968 105.44 22.9836 105.984C24.5704 106.832 26.9099 106.632 28.6058 106.322C29.9805 106.071 31.1804 105.461 32.2645 104.585C33.7359 103.396 35.0245 102 36.1341 100.471C37.3778 98.7557 38.4938 96.9499 39.4697 95.0696C40.3783 93.3188 41.2248 91.5261 41.9577 89.6941C42.5052 88.3255 43.0328 86.9433 43.511 85.5485L43.5427 85.4496L44.0834 83.4168C44.2982 82.6092 44.4943 81.7931 44.6762 80.973L44.676 80.9733ZM29.9526 68.869L25.1608 68.291C25.8828 66.6033 26.6557 64.9373 27.4806 63.2965C29.1508 59.9738 31.0594 56.7599 33.2437 53.7478C35.0216 51.2959 37.0599 48.9601 39.401 47.0282C39.8678 46.6428 40.3637 46.2687 40.8838 45.9253C40.7628 46.5513 40.6352 47.1181 40.5424 47.5128C39.9255 50.1326 39.084 52.7123 38.1312 55.2282C37.1357 57.8566 35.9684 60.4185 34.6106 62.8804C33.6942 64.5421 32.5365 66.4512 31.2067 67.8198C30.9565 68.0774 30.3476 68.665 29.9526 68.869ZM100.141 125.809C98.6606 126.806 97.1898 127.816 95.7293 128.841C93.2151 130.604 90.7502 132.512 88.5192 134.626C86.9843 136.08 85.5581 137.776 84.6414 139.694C83.9873 141.062 83.833 142.43 84.1058 143.921C84.209 144.485 84.4015 144.829 84.8872 145.136C85.5922 145.582 86.9289 145.431 87.6893 145.292C91.7542 144.55 94.4737 140.246 96.1279 136.832C97.7691 133.445 99.0728 129.657 100.14 125.809L100.141 125.809ZM182.488 35.2181C183.194 35.4032 183.889 35.6452 184.569 35.9515C187.391 37.2243 189.589 39.2933 191.159 41.954C192.531 44.2767 193.407 46.832 193.892 49.4792C194.009 50.1218 194.109 50.7756 194.207 51.4264L194.26 51.771C195.143 48.1822 195.988 44.5842 196.798 40.9783C197.309 38.7031 197.772 36.4168 198.179 34.1205C196.798 34.0848 195.416 34.0703 194.035 34.0747C190.425 34.0861 186.831 34.4201 183.279 35.0686C183.026 35.1148 182.761 35.1647 182.488 35.2181ZM159.898 70.617C159.699 70.7825 159.5 70.9493 159.302 71.1175C159.453 70.5871 159.615 70.0598 159.785 69.5358C160.58 67.0855 161.62 64.7233 162.906 62.4906C164.029 60.5431 165.4 58.7615 167.068 57.2488C168.265 56.1637 169.633 55.3675 171.233 55.0752C171.444 55.0365 171.965 54.9621 172.206 55.0158C172.257 55.0497 172.317 55.0922 172.364 55.1329C172.511 55.588 172.674 56.096 172.758 56.5558C173.074 58.2857 172.898 60.4134 172.591 62.3379C168.111 64.6748 163.777 67.3928 159.898 70.617ZM239.984 45.313C239.918 44.7729 239.837 44.2356 239.74 43.703C239.563 42.7348 239.301 41.7433 239.049 40.7898L239.049 40.7894L239.027 40.7084C238.806 39.8708 238.245 39.1451 237.633 38.5508C237.281 38.2086 236.779 38.2797 236.329 38.3619C235.574 38.4999 234.81 38.7665 234.305 39.3727C233.695 40.1058 233.375 40.9551 233.237 41.8947C233.208 42.0895 233.187 42.2851 233.174 42.4813C233.542 42.5196 233.907 42.5733 234.27 42.6443C235.732 42.9305 237.169 43.4171 238.442 44.201C238.982 44.5336 239.501 44.9025 239.984 45.3132V45.313ZM235.191 68.9765C235.31 68.8168 235.411 68.6715 235.481 68.564C235.877 67.9623 236.235 67.3278 236.559 66.6727C236.135 66.5431 235.715 66.4013 235.299 66.2475C235.191 67.1391 235.137 68.0685 235.191 68.9767V68.9765ZM29.2019 117.55C24.2458 118.455 20.095 118.289 16.7541 117.075C13.4111 115.849 10.7924 113.87 8.91017 111.137C7.01595 108.405 5.72653 105.17 5.04259 101.432C5.02248 101.322 4.83967 100.254 4.49646 98.2394C4.15293 96.2251 4.19793 92.9368 4.63526 88.3988C5.05809 83.851 5.9494 79.2302 7.26783 74.519C8.60076 69.8173 10.3153 65.2617 12.3991 60.8536C14.4976 56.4556 16.8806 52.4364 19.5387 48.8102C22.2088 45.1817 25.0817 42.1747 28.1591 39.8018C31.2468 37.4143 34.4344 35.9203 37.7466 35.3153C40.6909 34.7777 43.2497 34.9056 45.4212 35.6868C47.5904 36.4559 49.3572 37.729 50.7052 39.4836C52.0533 41.2386 52.9487 43.2913 53.377 45.632C53.9235 48.6188 54.0457 51.5547 53.7533 54.4467C54.313 54.5537 54.948 54.8054 55.662 55.2071C56.8328 55.8546 57.5779 57.0862 57.9122 58.9123L57.9189 58.9492C57.957 59.1575 58.2183 59.3378 58.6858 59.4677C59.1554 59.6098 59.6409 59.6986 60.1394 59.7213C61.6742 59.7956 63.8258 59.5673 66.6351 59.0544C68.929 58.6354 70.9781 58.5399 72.7674 58.7578C74.5446 58.9778 76.0329 59.352 77.2181 59.87C78.8908 60.6285 79.8052 61.3985 79.951 62.1952C79.998 62.4525 79.9257 62.681 79.7318 62.8684C76.1319 65.9194 73.5653 71.7074 72.0296 80.2199C71.365 83.8622 70.9655 87.2912 70.8727 90.5251C70.8098 93.4368 70.9481 95.8557 71.3025 97.7921C71.3382 97.9883 71.4818 98.6333 71.7349 99.7396C71.9879 100.846 72.5673 101.31 73.4875 101.142C74.5547 100.947 75.6829 100.044 76.8714 98.434C78.0456 96.8138 79.1903 94.895 80.2914 92.6676C81.3924 90.4403 82.3954 88.2307 83.2878 86.0413C84.1903 83.8375 84.9059 81.9971 85.4521 80.4789L86.2552 78.2172L86.2786 78.213C86.3319 76.4034 86.4663 74.5628 86.6769 72.6947C87.0273 69.5531 87.6559 66.6142 88.5701 63.8509C89.4721 61.0898 90.7169 58.7474 92.2924 56.8261C93.8799 54.9022 95.8566 53.7182 98.2611 53.279C99.8926 52.9811 101.25 52.9864 102.358 53.2907C103.468 53.6071 104.373 54.0499 105.065 54.6453C105.755 55.2286 106.276 55.8554 106.651 56.5215C107.012 57.1774 107.269 57.7511 107.406 58.2201L107.616 58.9543C106.463 59.1647 105.396 60.0563 104.404 61.6306C103.422 63.1902 102.542 65.1747 101.778 67.5811C101.024 69.9732 100.397 72.5702 99.9053 75.3575C99.4139 78.1446 99.1065 80.8985 98.9853 83.6308C98.864 86.3631 98.95 88.8425 99.2311 91.0707L99.4162 92.2906C100.156 96.3349 101.655 98.151 103.9 97.7409C105.581 97.4341 107.376 94.6366 109.272 89.3385C110.754 85.243 112.15 80.264 113.448 74.4038C113.998 71.3145 114.597 68.4189 115.246 65.7294L115.332 65.2324L115.335 65.3839C116.102 62.1661 116.981 59.346 117.978 56.897C118.965 54.4624 120.086 52.4846 121.332 50.9782C122.58 49.4837 123.999 48.5787 125.606 48.2852C127.765 47.8908 129.689 47.9448 131.374 48.4224C133.061 48.9121 134.235 49.5081 134.91 50.2207C135.169 50.5279 135.319 50.7919 135.364 51.0371C135.438 51.4417 135.236 51.795 134.774 52.1075C132.641 53.4088 130.962 55.8052 129.738 59.2961C128.525 62.7851 127.581 67.0483 126.916 72.071C126.252 77.106 125.657 82.5845 125.133 88.5186L124.561 94.1197C128.518 90.5981 131.976 86.6992 134.924 82.4376C137.868 78.1636 140.027 73.4001 141.386 68.1493L141.472 68.1335C141.507 67.8562 141.541 67.5799 141.574 67.3045C142.05 62.9116 141.994 59.0715 141.395 55.7997C140.864 52.8952 139.72 50.6599 137.972 49.0791L139.185 48.2245C139.987 47.6856 141.015 47.0673 142.283 46.3794C143.564 45.6896 144.927 45.0989 146.395 44.6027C146.934 44.4282 147.479 44.2907 148.031 44.1901C148.964 44.0198 150.009 43.9809 151.162 44.0489C152.318 44.1293 153.442 44.6586 154.521 45.639C155.603 46.6322 156.363 48.2915 156.787 50.608C157.002 51.7844 157.026 53.1606 156.872 54.7463C158.259 52.2768 159.85 49.9598 161.666 47.8297C162.97 46.2905 164.395 44.9186 165.955 43.7024C165.494 43.6341 165.002 43.5475 164.476 43.4413C163.106 43.1597 161.696 42.6572 160.245 41.9345C158.804 41.1971 157.525 40.1641 156.427 38.8068C155.317 37.4517 154.578 35.6997 154.188 33.5671L154.157 33.3957C153.606 29.7603 154.629 26.6224 157.228 23.9948C159.671 21.5476 163.616 19.8267 169.05 18.8344L170.02 18.6574C174.047 18.1498 178.405 18.3418 183.136 19.2508C187.854 20.1623 192.608 21.2699 197.377 22.6025C199.535 23.1708 201.639 23.7239 203.698 24.2344C203.86 21.2411 203.738 18.5658 203.308 16.2127C203.256 15.9308 203.072 15.0653 202.759 13.6281C202.445 12.191 201.471 10.7478 199.853 9.32087L201.066 8.4662C201.853 7.91717 202.895 7.30886 204.164 6.62117C205.433 5.93365 206.822 5.35053 208.32 4.87445C208.903 4.66663 209.47 4.5125 210.023 4.41155C210.906 4.25033 211.926 4.21575 213.055 4.28837C214.199 4.37087 215.31 4.90228 216.402 5.88079C217.484 6.87379 218.244 8.53323 218.668 10.8496C218.993 12.6264 218.929 14.8418 218.464 17.4977C218.012 20.1515 217.307 23.0914 216.368 26.3406C217.769 26.376 219.01 26.3013 220.114 26.0997C221.415 25.8621 222.258 25.3411 222.66 24.5584C222.883 24.049 222.946 23.4929 222.836 22.8922L222.744 22.3897C224.204 22.1233 225.4 22.2847 226.322 22.889C227.113 23.403 227.579 24.0778 227.727 24.8867C227.75 25.0092 227.783 25.3323 227.829 25.856C227.886 26.3775 227.436 27.1056 226.501 28.0233C225.568 28.9536 223.992 29.6213 221.759 30.0292C219.661 30.4121 217.452 30.6003 215.145 30.6039L213.862 34.9542C211.949 40.9901 210.252 47.1636 208.778 53.4486C207.306 59.7457 206.727 65.5887 207.039 70.9649C207.108 71.5475 207.182 72.0911 207.273 72.5937C207.691 74.8732 208.498 75.8909 209.725 75.6669C210.903 75.4518 212.072 74.567 213.233 73.0127C214.391 71.4459 215.484 69.5874 216.495 67.4268C217.518 65.2516 218.419 63.1115 219.198 60.9936C219.528 60.1072 219.83 59.2792 220.102 58.5097C220.36 57.2059 220.734 55.9173 221.218 54.6472C222.062 52.4667 223.192 50.6773 224.622 49.2764C224.244 48.1803 223.959 47.1051 223.761 46.0269C223.546 44.8502 223.435 43.4139 223.427 41.7059C223.406 40 223.806 38.1665 224.626 36.2057C225.444 34.2324 226.708 32.5453 228.416 31.1441C230.125 29.743 232.347 28.7925 235.083 28.293C238.272 27.7106 241.072 27.7692 243.494 28.4668C245.904 29.1665 247.957 30.3367 249.651 31.9775C252.464 34.8075 254.321 38.6479 255.211 43.5131C255.341 44.2238 255.504 45.4605 255.695 47.1988C255.901 48.9467 255.833 51.2769 255.489 54.1767C257.524 52.9691 259.086 51.7342 260.163 50.4861C261.253 49.2359 261.983 48.1655 262.367 47.2848L262.934 45.9526L269.043 44.8369L268.444 46.6184C268.02 47.8355 267.279 49.3261 266.195 51.0944C265.124 52.8604 263.602 54.658 261.627 56.4752C259.664 58.2901 257.151 59.8638 254.098 61.1937C253.183 64.2991 251.934 67.1739 250.349 69.8064C248.767 72.4511 246.864 74.6602 244.632 76.4608C242.411 78.2471 239.897 79.4026 237.1 79.9134L237.1 79.9133C233.836 80.5092 231.072 80.3681 228.78 79.4821C226.49 78.6087 224.654 77.2341 223.276 75.3835C222.373 74.1987 221.635 72.8588 221.063 71.3662C220.454 72.7346 219.814 74.0719 219.142 75.3779C217.899 77.796 216.585 79.8342 215.19 81.4948C213.798 83.1674 212.375 84.1239 210.915 84.3905L209.826 84.7414C209.096 84.9762 208.172 85.1952 207.044 85.4014L207.044 85.4019C204.198 85.9216 201.673 85.7747 199.47 84.9612C196.577 83.9066 194.794 81.5727 194.132 77.9574C193.856 76.4501 193.889 74.4811 194.23 72.0503C194.54 69.733 195.027 67.1316 195.666 64.2298C193.36 64.7726 191.172 65.379 189.1 66.047C188.315 69.7239 187.142 73.3577 185.588 76.9216C184.049 80.4954 182.157 83.8046 179.949 86.842C177.729 89.8816 175.218 92.4426 172.403 94.5144C169.587 96.5864 166.51 97.9208 163.173 98.5302C159.247 99.2471 156.26 99.1341 154.221 98.1767C152.172 97.2336 150.978 95.7673 150.615 93.7818C150.597 93.684 150.499 93.0811 150.339 91.996C150.176 90.8986 150.796 88.949 152.185 86.1497C151.12 85.5969 150.235 84.5682 149.541 83.0614C148.495 86.6971 147.583 90.3083 146.787 93.9239C146.001 97.5249 145.461 101.018 145.18 104.4C144.898 107.782 145.018 110.926 145.551 113.843C145.946 116 146.412 117.853 146.961 119.399C147.498 120.947 147.98 122.126 148.406 122.934L149 124.168L147.945 124.5C147.227 124.733 146.303 124.952 145.175 125.158L145.175 125.158C142.316 125.68 139.792 125.533 137.589 124.72C134.696 123.665 132.925 121.329 132.265 117.726C131.987 116.206 132.008 114.239 132.349 111.809C132.676 109.368 133.198 106.613 133.9 103.521C134.593 100.444 135.374 97.1606 136.224 93.6998C136.527 92.4793 136.827 91.2538 137.123 90.0231C133.111 95.3341 128.562 100.057 123.474 104.184C122.883 108.991 122.139 113.724 121.238 118.359C120.326 123.009 119.153 127.402 117.709 131.567C116.263 135.719 114.466 139.479 112.302 142.825C110.14 146.184 107.533 148.977 104.482 151.219C101.416 153.45 97.8006 154.959 93.6049 155.726V155.726C89.1518 156.539 85.1639 156.571 81.6395 155.809C78.1297 155.056 75.2291 153.547 72.9773 151.286C70.713 149.027 69.2556 146.051 68.5761 142.338C68.0626 139.532 68.4337 136.918 69.6974 134.471C70.9611 132.024 72.8764 129.673 75.4409 127.407C78.0074 125.152 81.0438 122.9 84.5518 120.664C88.0601 118.428 91.8259 116.144 95.847 113.801C100.006 111.383 104.239 108.811 108.523 106.104L109.408 100.408C108.173 102.597 106.824 103.818 105.365 104.085C103.586 104.409 101.735 104.342 99.8176 103.907C97.885 103.462 96.0494 102.645 94.2938 101.433C92.5358 100.209 91.0161 98.6249 89.7158 96.646C88.823 95.2726 88.1166 93.7192 87.6013 91.9891C87.5374 92.153 87.4729 92.3175 87.4078 92.4825C86.3684 95.1168 85.184 97.6507 83.8668 100.082C82.5618 102.511 81.1382 104.57 79.5961 106.257C78.0683 107.955 76.4497 108.947 74.7446 109.258L74.7441 109.259C70.8675 109.966 67.5341 109.486 64.7395 107.793C61.9569 106.097 60.266 103.645 59.6783 100.434C58.9652 96.537 58.684 92.8523 58.8124 89.3968C58.9507 85.9267 59.3137 82.7827 59.9086 79.9386C60.5038 77.0943 61.1706 74.6423 61.9072 72.5702C62.6336 70.5124 63.2914 68.9106 63.8434 67.7712L64.6909 66.0968C62.6261 67.1451 60.1303 68.0567 57.2043 68.8317C56.8901 71.6878 56.4488 74.4029 55.9093 76.9963C55.3673 79.5775 54.8843 81.7173 54.4453 83.4059L53.7673 85.9361L53.6917 85.9499L53.6049 86.2948C53.2306 87.7818 52.6535 89.6856 51.8515 92.023C51.0474 94.3481 50 96.8696 48.7031 99.5509C47.3941 102.234 45.817 104.84 43.9601 107.37C42.1153 109.898 39.9679 112.088 37.5156 113.929C35.0634 115.77 32.2937 116.985 29.2024 117.55L29.2019 117.55ZM168.184 41.2572C168.218 41.4407 168.281 41.6892 168.374 42.0094C170.546 40.6693 172.947 39.7539 175.58 39.2732C178.439 38.7511 180.845 38.9451 182.819 39.8256C184.783 40.7208 186.349 42.1446 187.495 44.1135C188.536 45.8485 189.277 47.8916 189.707 50.2445C189.747 50.4598 189.836 51.0278 189.98 51.9473L190.131 52.9029C190.365 54.3926 190.348 56.726 190.054 59.8954C192.321 59.2129 194.667 58.6048 197.097 58.0743C197.419 56.7276 197.754 55.3496 198.104 53.9415C199.082 50.0015 200.034 45.9903 200.948 41.9098C201.865 37.842 202.588 33.8976 203.134 30.0874C200.196 29.9018 197.164 29.8224 194.021 29.8263C190.107 29.8446 186.28 30.2016 182.514 30.8893C177.46 31.8123 173.754 33.1093 171.408 34.7665C168.804 36.6097 167.729 38.7692 168.184 41.2572ZM47.551 86.8812L47.6257 86.6467L48.1943 84.5095C48.6456 82.8188 49.1243 80.6543 49.6037 78.0084C50.0853 75.3749 50.3982 72.5822 50.5573 69.6401C49.9516 69.6192 49.3843 69.5643 48.8554 69.4753C48.2541 70.5143 47.6135 71.4991 46.9343 72.4295C45.2923 74.6797 43.5796 76.4742 41.7762 77.8421C40.072 79.1284 38.4275 79.91 36.8205 80.2036C36.7815 80.2106 36.6317 80.2309 36.3712 80.2662L36.3698 80.2664C36.1376 80.2978 35.8178 80.3412 35.4106 80.3976C34.5329 80.5201 33.4796 80.0285 32.2215 78.9031C30.9655 77.7901 30.078 75.8495 29.5756 73.1045C29.9514 73.1498 30.3307 73.1439 30.6866 73.079C31.7662 72.8817 32.9578 72.1198 34.2593 70.7801C35.5609 69.4405 36.9166 67.4958 38.3364 64.9317C39.7438 62.3696 41.0072 59.6441 42.1098 56.7324C43.2125 53.8208 44.0654 51.0687 44.6832 48.4863C45.4207 45.3122 45.6449 43.0041 45.3825 41.5704C45.1807 40.4676 44.675 39.99 43.8654 40.1379C41.4608 40.5771 39.0704 41.7859 36.6921 43.7528C34.3013 45.7217 31.9948 48.22 29.7991 51.2553C27.5912 54.2926 25.5487 57.68 23.6794 61.3901C21.8124 65.1125 20.1854 68.9685 18.7982 72.958C17.411 76.9474 16.343 80.8784 15.6083 84.7613C14.8736 88.6444 14.5347 92.2648 14.6082 95.6458C14.6398 97.2736 14.7806 98.8055 15.043 100.239C15.3145 101.722 15.8346 103.388 16.6063 105.248C17.3876 107.094 18.8401 108.589 20.9765 109.731C23.1125 110.874 25.9112 111.135 29.3708 110.503C31.3826 110.136 33.2392 109.265 34.9401 107.89C36.641 106.516 38.1898 104.865 39.5788 102.965C40.9535 101.055 42.1753 99.0713 43.2463 97.0267C44.3029 94.9721 45.1934 93.049 45.9079 91.2721C46.62 89.4831 47.1628 88.016 47.551 86.8812ZM88.4544 149.473C93.0548 148.633 96.8842 145.033 99.9567 138.684C102.58 133.279 104.822 125.853 106.689 116.381L102.915 118.894C99.4556 121.121 96.2497 123.277 93.2846 125.364C90.3174 127.438 87.7538 129.502 85.5919 131.543C83.4321 133.597 81.839 135.699 80.8028 137.864C79.7761 140.014 79.4817 142.284 79.9214 144.686C80.2443 146.451 81.1391 147.807 82.6134 148.729C84.0778 149.664 86.0256 149.916 88.4544 149.473ZM161.098 92.0448C162.558 91.7783 164.108 90.6847 165.759 88.7621C167.398 86.8417 168.976 84.4512 170.479 81.5803C171.982 78.7096 173.286 75.6473 174.403 72.4037C170.411 74.7665 167.158 77.1464 164.684 79.5612C162.208 81.9638 160.439 84.1484 159.381 86.1273C158.441 87.9835 158.064 89.458 158.266 90.561C158.284 90.659 158.371 90.9979 158.53 91.5893C158.689 92.1808 159.54 92.3293 161.098 92.0448ZM153.912 83.1873C155.952 80.13 158.855 77.016 162.618 73.8848C166.393 70.7512 170.984 67.8484 176.39 65.1767C177.193 61.3193 177.382 58.1946 176.942 55.7926C176.85 55.2902 176.659 54.5907 176.368 53.6938C176.077 52.7972 175.441 52.0265 174.439 51.3991C173.447 50.7572 172.124 50.5935 170.468 50.896C168.198 51.3103 166.099 52.3776 164.209 54.1032C162.304 55.8188 160.645 57.9076 159.22 60.3715C157.807 62.8332 156.638 65.4532 155.738 68.2263C154.838 70.9995 154.226 73.6822 153.907 76.2988C153.597 78.901 153.598 81.193 153.912 83.1873ZM243.718 57.4025C244.63 51.9927 244.698 47.1677 243.924 42.9397C243.792 42.2166 243.527 41.1126 243.14 39.6254C242.742 38.1405 241.894 36.763 240.599 35.505C239.304 34.2471 237.625 33.8064 235.564 34.1827C233.626 34.5367 232.118 35.3693 231.034 36.6561C229.966 37.9531 229.297 39.4937 229.028 41.2781C228.834 42.6433 228.867 44.0684 229.133 45.5267C229.212 45.9557 229.317 46.3923 229.449 46.8369C231.016 46.6014 232.347 46.5989 233.451 46.8152C234.556 47.0315 235.48 47.3695 236.209 47.8189C236.923 48.2584 237.492 48.7369 237.914 49.2423C238.324 49.7502 238.62 50.19 238.788 50.552L239.028 51.1032C237.472 51.8816 236.123 53.103 234.983 54.7677C237.302 56.4971 240.216 57.3836 243.718 57.4025H243.718ZM234.599 74.3539C236.231 74.056 237.707 72.9125 239.037 70.8967C240.355 68.8829 241.46 66.4014 242.326 63.4445C238.52 63.1515 235.213 61.9827 232.437 59.9059C231.827 61.7017 231.392 63.4782 231.143 65.2335C230.84 67.3909 230.845 69.2898 231.148 70.9443C231.626 73.5546 232.771 74.6879 234.599 74.3541L234.599 74.3539ZM169.292 179.5L169.574 179.449L169.573 179.448C170.702 179.242 171.626 179.023 172.356 178.788L173.408 178.444L172.805 177.224C172.39 176.414 171.896 175.237 171.349 173.703C170.79 172.172 170.324 170.319 169.925 168.138C168.923 162.659 169.487 155.35 171.628 146.195L173.167 145.876C176.589 145.251 179.252 145.322 181.154 146.089C182.226 146.54 182.85 147.249 183.029 148.229L183.845 147.422C184.37 146.895 184.949 146.181 185.576 145.244C186.218 144.316 186.728 143.222 187.118 141.961C187.508 140.699 187.565 139.346 187.296 137.876C186.978 136.135 186.238 134.865 185.069 134.09C183.901 133.316 182.623 132.916 181.239 132.903C179.867 132.887 178.603 132.979 177.45 133.189C176.64 133.337 175.803 133.541 174.96 133.783L176.375 129.118C177.721 124.692 178.872 120.594 179.84 116.808C180.81 113.034 181.314 109.827 181.348 107.173C185.492 105.986 189.627 105.028 193.773 104.271C197.691 103.581 200.918 103.27 203.492 103.345C206.054 103.421 207.434 104.03 207.638 105.146L208.466 104.336C208.978 103.812 209.556 103.086 210.195 102.146C210.82 101.196 211.342 100.1 211.744 98.8359C212.147 97.5719 212.216 96.2169 211.949 94.7586C211.664 93.202 210.768 92.112 209.269 91.4739C207.76 90.8503 206.011 90.5746 204.011 90.6611C202.009 90.7355 200.058 90.9526 198.156 91.2997C194.709 91.9293 190.691 93.043 186.105 94.653C182.853 95.7917 179.59 97.0841 176.31 98.557C175.13 98.2785 173.884 98.253 172.583 98.4904L171.768 98.6774C170.159 99.0979 168.642 99.6787 167.218 100.42C165.795 101.161 164.639 101.841 163.736 102.449L162.375 103.394C162.884 103.821 163.331 104.321 163.727 104.895C159.494 107.327 156.106 109.668 153.562 111.906C151.008 114.158 149.864 116.013 150.131 117.472C150.267 118.219 150.502 118.81 150.813 119.26C151.136 119.707 151.48 120.062 151.842 120.313C152.217 120.561 152.567 120.738 152.925 120.824C153.269 120.901 153.556 120.95 153.786 120.958L154.119 120.974C154.623 119.64 155.94 118.247 158.072 116.807C160.215 115.352 162.895 113.925 166.142 112.547C166.435 116.23 166.236 120.407 165.508 125.087C164.794 129.776 163.838 134.599 162.643 139.566C160.272 141.089 158.154 142.679 156.269 144.365C154.382 146.04 152.924 147.699 151.877 149.322C150.842 150.941 150.434 152.384 150.661 153.622C150.798 154.369 151.02 154.962 151.319 155.414C151.629 155.864 151.973 156.219 152.348 156.467C152.738 156.725 153.097 156.888 153.443 156.976C153.801 157.063 154.089 157.112 154.304 157.11L154.649 157.123C155.475 154.921 157.204 152.934 159.836 151.174C158.716 155.722 157.808 159.839 157.109 163.5C156.424 167.171 156.257 170.001 156.625 172.011C156.993 174.021 157.659 175.583 158.612 176.701C159.574 177.805 160.696 178.6 161.958 179.053C163.235 179.517 164.544 179.746 165.875 179.744C167.098 179.774 168.237 179.693 169.292 179.5ZM194.839 171.96C197.48 173.643 200.86 174.102 205.007 173.345L205.007 173.345C206.761 173.025 208.402 172.016 209.956 170.326C210.19 170.07 210.422 169.805 210.65 169.531C211.149 170.568 211.819 171.454 212.655 172.189C214.148 173.486 215.941 174.349 218.05 174.787C220.169 175.211 221.864 175.332 223.171 175.132C224.466 174.933 225.241 174.804 225.474 174.761H225.474C227.584 174.376 229.645 173.721 231.654 172.784C233.882 171.731 235.864 170.369 237.583 168.675C239.303 166.993 240.593 165.035 241.425 162.793C242.272 160.561 242.445 158.111 241.954 155.427C241.258 151.628 239.777 148.454 237.515 145.929C240.87 144.465 244.749 143.21 249.143 142.165C248.495 145.062 248.01 147.657 247.7 149.97C247.359 152.401 247.338 154.368 247.614 155.875C248.271 159.466 250.055 161.8 252.977 162.875C255.18 163.688 257.692 163.837 260.526 163.319C261.679 163.109 262.615 162.888 263.333 162.655L264.386 162.311C263.769 158.941 263.782 155.481 264.44 151.941C265.084 148.391 266.112 144.936 267.523 141.563C268.922 138.192 270.486 135.031 272.204 132.083C273.933 129.133 275.598 126.524 277.203 124.281C278.808 122.037 280.159 120.271 281.229 118.986L282.817 117.062L281.955 118.448C281.375 119.365 280.707 120.703 279.951 122.462C279.195 124.221 278.511 126.372 277.901 128.928C277.289 131.471 276.918 134.363 276.789 137.604C276.647 140.846 276.932 144.416 277.646 148.313C278.233 151.524 279.912 153.979 282.694 155.674C285.464 157.372 288.786 157.855 292.675 157.144C294.208 156.864 295.704 155.894 297.17 154.208C298.626 152.537 300.013 150.485 301.294 148.06C302.586 145.633 303.759 143.101 304.822 140.463C305.898 137.822 306.811 135.325 307.603 133.002C308.392 130.667 308.994 128.759 309.418 127.263L310.049 125.033L304.185 126.103L303.43 128.281C302.94 129.763 302.269 131.57 301.419 133.714C300.571 135.869 299.635 138.029 298.577 140.21C297.53 142.39 296.442 144.273 295.298 145.85C294.169 147.436 293.063 148.322 291.984 148.519C291.076 148.685 290.473 148.162 290.173 146.938C289.875 145.726 289.684 144.887 289.601 144.433C289.271 142.632 289.114 140.457 289.117 137.91C289.128 134.717 289.424 131.345 290.031 127.802C290.635 124.246 291.553 120.951 292.805 117.885C294.059 114.832 295.677 112.447 297.662 110.755C297.88 110.563 297.967 110.344 297.924 110.111C297.862 109.768 297.55 109.382 297 108.938C296.07 108.221 294.553 107.624 292.416 107.166C290.288 106.693 287.677 106.626 284.565 106.941C282.578 107.304 280.356 109.09 277.926 112.295C275.495 115.5 273.075 119.386 270.68 123.965C268.3 128.554 266.191 133.106 264.369 137.63C262.548 142.155 261.262 145.936 260.534 148.956C260.233 143.566 260.826 137.733 262.298 131.436C263.772 125.151 265.457 118.979 267.345 112.948C268.383 109.542 269.314 106.319 270.155 103.291C270.98 100.252 271.606 97.5039 272.014 95.0232C272.436 92.5522 272.486 90.4663 272.174 88.7629C271.75 86.4464 270.99 84.7871 269.908 83.7941C268.829 82.8133 267.717 82.2819 266.574 82.1994C265.433 82.1289 264.412 82.1636 263.529 82.3249C262.952 82.4301 262.372 82.5867 261.789 82.7945C260.316 83.2661 258.951 83.8447 257.67 84.5346C256.402 85.2225 255.371 85.8285 254.572 86.3797L253.36 87.2343C255.111 88.8394 256.264 91.1238 256.807 94.0895C257.377 97.2022 257.412 100.995 256.924 105.466C256.46 109.579 255.73 113.904 254.747 118.44C253.752 122.978 252.707 127.45 251.611 131.855C251.25 133.285 250.903 134.684 250.571 136.051C248.58 136.529 246.477 137.111 244.267 137.793C240.535 138.943 236.808 140.333 233.073 141.952L230.892 140.426C229.59 139.549 228.37 138.632 227.222 137.689C226.075 136.759 225.08 135.687 224.249 134.471C223.42 133.267 222.852 131.826 222.545 130.147C222.265 128.615 222.496 127.243 223.225 126.033C223.955 124.823 224.897 123.879 226.029 123.203C227.173 122.526 228.295 122.08 229.399 121.879C230.994 121.587 232.435 121.768 233.698 122.436C234.736 122.981 235.385 123.965 235.643 125.374C235.907 126.82 235.577 128.273 234.643 129.748C233.711 131.236 232.699 132.079 231.595 132.281C231.808 133.445 232.508 134.292 233.664 134.79C234.834 135.298 235.875 135.514 236.797 135.421C237.708 135.344 238.306 135.285 238.6 135.231C239.815 135.01 241.003 134.577 242.156 133.949C243.578 133.195 244.703 132.141 245.531 130.774C246.358 129.407 246.589 127.757 246.234 125.82C245.804 123.468 244.814 121.596 243.279 120.205C241.73 118.804 239.853 117.829 237.648 117.282C235.441 116.722 233.503 116.519 231.844 116.67C230.171 116.811 228.918 116.964 228.072 117.119C226.477 117.41 224.907 117.836 223.378 118.419C221.02 119.318 218.919 120.512 217.088 122.012C215.258 123.511 213.881 125.27 212.972 127.298C212.048 129.316 211.811 131.55 212.257 133.989C212.629 136.023 213.29 137.764 214.213 139.204C214.905 140.268 215.676 141.234 216.533 142.111L216.496 142.118L215.864 144.348C215.441 145.844 214.848 147.662 214.08 149.841C213.31 152.008 212.418 154.198 211.403 156.409C210.388 158.621 209.267 160.535 208.069 162.16C206.868 163.772 205.629 164.695 204.366 164.926C203.311 165.119 202.657 164.732 202.402 163.752C202.146 162.773 201.988 162.118 201.932 161.812C201.652 160.28 201.549 158.399 201.608 156.159C201.678 153.423 201.947 150.461 202.424 147.246C202.903 144.043 203.541 140.95 204.324 137.958C205.122 134.975 206.007 132.394 207.006 130.236C207.993 128.08 209.03 126.675 210.092 126.038C210.579 125.721 210.795 125.378 210.726 124.998C210.676 124.728 210.527 124.464 210.272 124.181C209.592 123.444 208.403 122.838 206.704 122.351C205.007 121.875 203.095 121.819 200.961 122.209C199.305 122.512 197.835 123.489 196.539 125.132C195.244 126.786 194.126 128.852 193.189 131.354C192.238 133.845 191.483 136.579 190.901 139.561C190.318 142.542 189.891 145.545 189.615 148.61C189.349 151.66 189.245 154.554 189.315 157.29C189.384 160.025 189.597 162.367 189.956 164.328C190.58 167.735 192.198 170.276 194.839 171.96ZM221.252 146.06C220.99 146.949 220.694 147.924 220.364 148.985C220.361 148.994 220.359 149.003 220.356 149.011C221.171 148.426 222.021 147.853 222.907 147.292C222.402 146.89 221.887 146.503 221.351 146.133C221.318 146.108 221.285 146.084 221.252 146.06ZM205.137 116C205.986 116.137 206.761 116.147 207.485 116.015V116.015C207.988 115.923 208.465 115.76 208.916 115.526C209.989 115.013 210.618 114.227 210.819 113.177C210.881 112.824 210.88 112.469 210.819 112.139C210.696 111.464 210.358 110.868 209.815 110.321C208.997 109.457 207.865 108.879 206.419 108.598C205.582 108.46 204.795 108.452 204.083 108.581C203.58 108.673 203.115 108.834 202.676 109.066C201.591 109.581 200.937 110.372 200.736 111.421C200.674 111.775 200.675 112.129 200.736 112.46C200.855 113.11 201.192 113.707 201.741 114.278C202.57 115.139 203.703 115.718 205.137 116ZM227.898 167.568C226.7 168.851 224.991 169.695 222.771 170.101V170.101C219.605 170.679 217.772 169.595 217.267 166.838C216.839 164.497 217.746 161.697 220.002 158.436C221.63 156.112 224.081 153.777 227.339 151.422C228.816 153.254 229.759 155.362 230.192 157.727C230.52 159.516 230.527 161.288 230.187 163.034C229.847 164.781 229.084 166.288 227.898 167.568Z" fill="white"/>
</g>
<defs>
<clipPath id="clip0_132_1122">
<rect width="316" height="184" fill="white"/>
</clipPath>
</defs>
</svg>
