<svg width="569" height="530" viewBox="0 0 569 530" fill="none" xmlns="http://www.w3.org/2000/svg">
<path fill-rule="evenodd" clip-rule="evenodd" d="M402.925 428.445C420.208 456.83 445.82 477.98 477.941 493.106C483.279 495.619 484.684 504.52 478.416 506.819C444.531 519.263 408.225 525.173 372.473 517.992C351.111 513.701 331.789 505.149 314.306 493.422C286.677 502.97 256.382 506.112 225.485 501.314C209.458 498.825 193.93 494.293 179.234 487.832C168.977 496.828 157.505 508.911 151.62 520.874L147.39 529.477L143.788 520.594C137.521 505.141 135.314 485.342 140.783 468.977C114.687 469.292 88.8815 465.025 65.8337 451.982C34.7812 434.409 15.1807 404.673 2.23897 372.165C-3.79152 357.02 9.33886 345.154 21.0686 338.089C49.1096 321.195 65.9206 293.348 76.8753 263.201C69.8218 253.356 64.7533 243.908 63.3078 230.815C62.6375 224.741 64.5866 220.006 71.2689 219.134C85.9182 217.219 98.2432 211.301 109.467 201.941C126.994 180.183 149.184 162.766 174.154 150.847C215.379 24.7466 315.105 -12.8008 441.726 4.42727C451.41 5.74606 454.941 18.4231 445.95 23.1301C417.046 38.2615 391.538 59.2016 378.082 89.6083L377.478 90.9655L377.341 91.0404L375.576 95.7555C366.189 120.861 366.219 148.077 370.753 174.193C390.898 190.579 407.379 211.019 419.13 234.059C424.917 240.287 435.013 241.478 442.851 239.238C448.157 237.723 452.689 230.676 455.443 226.292C458.142 221.996 460.647 217.563 463.221 213.192C466.393 207.799 469.651 202.48 473.161 197.299C495.112 164.906 523.58 144.019 559.953 129.74L568.959 126.201L565.54 135.253C558.082 154.988 553.528 175.262 553.779 196.427C553.979 213.295 557.235 229.053 561.69 245.242L564.535 255.592L555.335 250.062C545.698 244.269 538.902 236.51 534.623 226.338C519.232 226.287 503.036 229.486 494.121 243.302C485.349 256.897 485.48 277.644 486.592 293.191C488.877 325.113 501.783 352.611 536.76 354.541C537.855 354.541 540.128 353.058 540.965 352.411C543.172 350.711 545.073 348.411 546.239 345.88L556.894 322.81L554.414 348.1C552.88 363.744 548.08 381.782 530.541 385.768C511.908 390.003 496.099 388.781 481.52 375.683C472.543 367.62 465.337 356.234 453.935 351.391C449.713 349.599 441.075 347.836 436.477 350.279C431.337 379.538 419.555 406.033 402.932 428.446L402.925 428.445Z" fill="url(#paint0_linear_113_12)" fill-opacity="0.5"/>
<defs>
<linearGradient id="paint0_linear_113_12" x1="334.774" y1="-12.1838" x2="248.226" y2="545.136" gradientUnits="userSpaceOnUse">
<stop stop-color="#1E0A86"/>
<stop offset="1" stop-color="#1E0A86" stop-opacity="0"/>
</linearGradient>
</defs>
</svg>
