<svg width="28" height="23" viewBox="0 0 28 23" fill="none" xmlns="http://www.w3.org/2000/svg">
<path fill-rule="evenodd" clip-rule="evenodd" d="M0.865116 10.8498C0.865116 11.5382 1.6293 11.6637 2.31607 11.8954C2.89881 12.0919 3.53233 12.2817 4.13798 12.4671L6.88446 13.3106C8.13972 13.7198 7.64678 13.7247 8.76086 13.0671C9.09341 12.8712 9.35907 12.6939 9.69224 12.4906L11.5154 11.3485C12.6821 10.5834 13.985 9.83748 15.1703 9.07363C15.4744 8.87773 15.7754 8.70592 16.0658 8.51311C16.3717 8.30978 16.6733 8.13613 16.9922 7.93095C17.6047 7.53605 18.1967 7.17575 18.8141 6.78827L20.6435 5.653C20.9321 5.48058 22.8326 4.10182 22.8326 4.82426C22.8326 4.96579 22.5323 5.2136 22.4288 5.30445L19.8781 7.59043C19.7666 7.68869 19.7301 7.69364 19.6173 7.79808L18.9157 8.44883C18.8036 8.55266 18.7665 8.55884 18.655 8.65648L13.0054 13.7204C12.923 13.7964 12.8809 13.8508 12.7991 13.9299C12.684 14.0411 12.6548 14.043 12.5403 14.1388L11.5798 14.9984C11.376 15.1578 11.2763 15.2326 11.2726 15.575L10.859 21.4478C11.5259 21.4478 11.7811 21.1753 12.2251 20.7854C12.6747 20.3904 12.8121 20.1519 13.3943 19.6668C13.4865 19.5895 13.5454 19.5209 13.6308 19.435C13.7993 19.2663 13.9306 19.1365 14.099 18.9672L15.075 18.0711L19.8644 21.5517C20.0948 21.7247 20.3153 21.8749 20.5562 22.056L21.2194 22.5368C21.4343 22.6709 21.7879 22.7969 22.1235 22.8309C22.8041 22.9008 23.2079 22.255 23.372 21.7272L24.2068 17.8325C25.0682 13.9688 25.8541 10.008 26.7136 6.15173C26.8059 5.73767 27.5162 2.54261 27.5162 2.17366C27.5162 1.41105 27.3583 0.707146 26.4102 0.626806C26.0157 0.593434 24.9902 1.0316 24.6006 1.1861C24.0241 1.41476 23.4649 1.61375 22.8679 1.84674C22.2771 2.07663 21.739 2.28984 21.1432 2.51541C19.0098 3.32499 16.3463 4.29587 14.2489 5.14253L5.62919 8.43771C5.03469 8.67749 4.48849 8.86042 3.89646 9.09835C3.09017 9.42218 0.862638 10.0389 0.862638 10.8504L0.865116 10.8498Z" fill="#27C7EC"/>
</svg>
