<svg width="28" height="23" viewBox="0 0 28 23" fill="none" xmlns="http://www.w3.org/2000/svg">
<path fill-rule="evenodd" clip-rule="evenodd" d="M27.7444 3.3127C27.5618 3.32762 27.2115 3.48542 27.0264 3.55687C26.5396 3.74574 25.1654 4.10236 24.6949 4.11292C25.2664 3.61775 25.3736 3.7184 26.094 2.84053C26.7553 2.03472 26.7304 1.73464 27.0488 1.07235C26.7198 1.14877 26.5247 1.34572 26.2293 1.4824C25.9407 1.61536 25.6621 1.73216 25.368 1.85082C24.7877 2.0838 24.1003 2.25838 23.464 2.40625C22.981 1.68742 21.527 0.964249 20.5179 0.756119C18.5934 0.359739 17.0957 0.885346 15.6598 2.04031C15.15 2.45036 14.6626 3.09463 14.3678 3.6861C14.0431 4.33658 13.6212 5.6624 13.7483 6.49057C13.7957 6.79687 13.787 7.31999 13.8867 7.52688C13.1014 7.34422 12.1105 7.4691 10.2015 6.88012C9.63312 6.70492 9.11458 6.54773 8.57486 6.31475C8.04386 6.08612 7.57831 5.85997 7.09093 5.60711C5.87188 4.97464 4.64037 4.02159 3.62636 3.08718C3.51543 2.98529 3.44189 2.90141 3.33282 2.79331C3.09287 2.55722 2.47587 1.79304 2.27643 1.65947C2.14867 2.20682 1.04617 3.66622 1.73422 5.98733C2.3855 8.18482 3.77469 8.88811 3.93549 9.12668C3.14959 9.12668 2.14742 8.78808 1.47433 8.43333C1.47433 10.5339 2.55377 12.2822 4.10563 13.2769C4.49391 13.526 4.94763 13.7223 5.38638 13.8665L5.82514 14.0162C5.83324 14.0199 5.85007 14.0261 5.86129 14.0336C5.60452 14.0547 5.2287 14.1641 4.68462 14.1939C4.14988 14.2231 3.87254 14.1218 3.45373 14.087C3.8526 15.7937 5.73789 17.5041 7.56771 17.88C7.82386 17.9321 8.29939 18.0278 8.58982 18.034C8.21837 18.587 5.9741 19.6239 5.12338 19.8588C3.87067 20.2042 3.04987 20.3806 1.6881 20.3806C1.18078 20.3806 0.877268 20.3272 0.404232 20.3272L0.599305 20.4527C2.02215 21.256 2.33003 21.4859 4.10252 22.0805C7.00181 23.0528 10.7799 23.0764 13.6929 22.2134C14.3853 22.0084 15.0733 21.7692 15.6885 21.4828C16.0219 21.3275 16.3261 21.2125 16.6265 21.0311C18.5149 19.8904 18.8639 19.6991 20.5086 18.0738C22.7971 15.8129 24.569 11.8622 24.8999 8.7974C24.9965 7.90462 25.0165 7.13733 25.0165 6.14017C25.4091 5.93328 26.1938 5.20638 26.5284 4.87399C26.678 4.72551 26.7142 4.64225 26.8481 4.49936C27.0382 4.29682 27.6833 3.54258 27.745 3.31333L27.7444 3.3127Z" fill="#27C7EC"/>
<path fill-rule="evenodd" clip-rule="evenodd" d="M27.7442 3.31342H27.7985L27.7537 3.25049L27.7442 3.31342Z" fill="#33EFB0"/>
</svg>
